<?xml version="1.0" standalone="no"?>
<!DOCTYPE svg PUBLIC "-//W3C//DTD SVG 1.1//EN" "http://www.w3.org/Graphics/SVG/1.1/DTD/svg11.dtd" >
<svg xmlns="http://www.w3.org/2000/svg" xmlns:xlink="http://www.w3.org/1999/xlink" version="1.1">
<metadata>
Created by FontForge 20201107 at Sat Feb 26 03:32:20 2022
 By Unknown
\(c\) Copyright 2022, Berkeley Graphics LLC. All Rights Reserved.
</metadata>
<defs>
<font id="BerkeleyMono-Regular" horiz-adv-x="600" >
  <font-face 
    font-family="Berkeley Mono"
    font-weight="400"
    font-stretch="normal"
    units-per-em="1000"
    panose-1="0 0 0 0 0 0 0 0 0 0"
    ascent="800"
    descent="-200"
    x-height="522"
    cap-height="680"
    bbox="0 -260 600 1007"
    underline-thickness="100"
    underline-position="-170"
    stemh="86"
    stemv="77"
    unicode-range="U+0020-25CC"
  />
<missing-glyph 
d="M492 960v-1200h-380v1200h380zM200 -157h200v39h-123l84 57h39v39h-200v-39h84l-84 -57v-39zM200 6h200v136h-200v-136zM200 214h200v135h-120v-67h40v28h40v-57h-120v96h-40v-135zM200 376h200v120h-40v-80h-160v-40zM200 444h120v84h80v40h-200v-40h80v-44h-80v-40z
M200 600h200v41h-80v84h-120v-125zM200 756h200v40h-80v44h80v40h-198v-40h78v-44h-80v-40zM240 46v56h120v-56h-120zM240 641v43h40v-43h-40z" />
    <glyph glyph-name=".notdef" 
d="M492 960v-1200h-380v1200h380zM200 -157h200v39h-123l84 57h39v39h-200v-39h84l-84 -57v-39zM200 6h200v136h-200v-136zM200 214h200v135h-120v-67h40v28h40v-57h-120v96h-40v-135zM200 376h200v120h-40v-80h-160v-40zM200 444h120v84h80v40h-200v-40h80v-44h-80v-40z
M200 600h200v41h-80v84h-120v-125zM200 756h200v40h-80v44h80v40h-198v-40h78v-44h-80v-40zM240 46v56h120v-56h-120zM240 641v43h40v-43h-40z" />
    <glyph glyph-name="space" unicode=" " 
 />
    <glyph glyph-name="A" unicode="A" 
d="M41 0l195 680h130l195 -680h-85l-50 172h-251l-49 -172h-85zM195 247h212l-102 360h-8z" />
    <glyph glyph-name="Aacute" unicode="&#xc1;" 
d="M41 0l195 680h130l195 -680h-85l-50 172h-251l-49 -172h-85zM182 760l138 177h117l-155 -177h-100zM195 247h212l-102 360h-8z" />
    <glyph glyph-name="Abreve" unicode="&#x102;" 
d="M41 0l195 680h130l195 -680h-85l-50 172h-251l-49 -172h-85zM117 918h73c15 -56 43 -78 98 -78s83 22 98 78h73c-18 -101 -67 -142 -171 -142c-105 0 -154 41 -171 142zM195 247h212l-102 360h-8z" />
    <glyph glyph-name="Acircumflex" unicode="&#xc2;" 
d="M41 0l195 680h130l195 -680h-85l-50 172h-251l-49 -172h-85zM101 756l148 181h77l148 -181h-88l-90 110h-17l-90 -110h-88zM195 247h212l-102 360h-8z" />
    <glyph glyph-name="Adieresis" unicode="&#xc4;" 
d="M41 0l195 680h130l195 -680h-85l-50 172h-251l-49 -172h-85zM134 787v108h106v-108h-106zM195 247h212l-102 360h-8zM336 787v108h106v-108h-106z" />
    <glyph glyph-name="Agrave" unicode="&#xc0;" 
d="M41 0l195 680h130l195 -680h-85l-50 172h-251l-49 -172h-85zM98 937h117l138 -177h-100zM195 247h212l-102 360h-8z" />
    <glyph glyph-name="Amacron" unicode="&#x100;" 
d="M41 0l195 680h130l195 -680h-85l-50 172h-251l-49 -172h-85zM136 818v66h303v-66h-303zM195 247h212l-102 360h-8z" />
    <glyph glyph-name="Aogonek" unicode="&#x104;" 
d="M496 -174c-84 0 -105 22 -93 95c5 33 23 51 81 79h-10l-50 172h-251l-49 -172h-85l195 680h130l195 -680h9l-38 -17c-45 -20 -59 -34 -63 -59c-6 -36 5 -47 48 -47c16 0 25 1 39 6v-49c-28 -6 -41 -8 -58 -8zM193 247h212l-102 360h-8z" />
    <glyph glyph-name="Aring" unicode="&#xc5;" 
d="M41 0l195 680h130l195 -680h-85l-50 172h-251l-49 -172h-85zM188 847c0 71 28 100 98 100c72 0 101 -29 101 -100c0 -70 -29 -98 -101 -98c-70 0 -98 28 -98 98zM195 247h212l-102 360h-8zM243 847c0 -36 11 -49 43 -49c34 0 46 13 46 49c0 39 -12 53 -46 53
c-32 0 -43 -14 -43 -53z" />
    <glyph glyph-name="Atilde" unicode="&#xc3;" 
d="M41 0l195 680h130l195 -680h-85l-50 172h-251l-49 -172h-85zM99 782c0 119 11 134 100 134c43 0 60 -6 109 -56c43 -43 52 -50 71 -50c30 0 32 7 32 79h65c0 -121 -11 -137 -101 -137c-42 0 -56 5 -105 55c-42 42 -54 50 -74 50c-29 0 -31 -6 -31 -75h-66zM195 247h212
l-102 360h-8z" />
    <glyph glyph-name="AE" unicode="&#xc6;" 
d="M10 0l194 680h344v-76h-191v-212h181v-76h-181v-240h211v-76h-290v173h-140l-49 -173h-79zM159 246h119v353h-21z" />
    <glyph glyph-name="B" unicode="B" 
d="M260 -8c-68 0 -108 2 -170 8v682c117 2 149 3 136 3c211 0 274 -41 274 -180c0 -94 -21 -128 -95 -145v-6c96 -27 123 -67 123 -174c0 -145 -62 -188 -268 -188zM174 73c42 -5 67 -6 112 -5c118 3 156 28 156 122c0 95 -32 124 -139 124h-129v-241zM174 388h153
c69 3 89 29 89 107c0 76 -23 106 -111 112c-37 3 -88 4 -131 2v-221zM226 685v0z" />
    <glyph glyph-name="C" unicode="C" 
d="M326 -10c-189 0 -243 79 -243 349c0 271 54 351 242 351c133 0 190 -40 202 -175h-85c-15 87 -45 102 -112 102c-126 0 -161 -60 -161 -276c0 -217 35 -278 158 -278c78 0 108 24 121 97h85c-12 -131 -73 -170 -207 -170z" />
    <glyph glyph-name="Cacute" unicode="&#x106;" 
d="M326 -10c-189 0 -243 79 -243 349c0 271 54 351 242 351c133 0 190 -40 202 -175h-85c-15 87 -45 102 -112 102c-126 0 -161 -60 -161 -276c0 -217 35 -278 158 -278c78 0 108 24 121 97h85c-12 -131 -73 -170 -207 -170zM200 761l138 177h117l-155 -177h-100z" />
    <glyph glyph-name="Ccaron" unicode="&#x10c;" 
d="M326 -10c-189 0 -243 79 -243 349c0 271 54 351 242 351c133 0 190 -40 202 -175h-85c-15 87 -45 102 -112 102c-126 0 -161 -60 -161 -276c0 -217 35 -278 158 -278c78 0 108 24 121 97h85c-12 -131 -73 -170 -207 -170zM119 938h88l90 -110h17l90 110h88l-148 -181h-77
z" />
    <glyph glyph-name="Ccedilla" unicode="&#xc7;" 
d="M291 -233c-25 0 -39 2 -62 8v49c15 -4 28 -6 56 -6c44 0 58 9 58 37c0 27 -17 34 -72 34h-36v43l35 61c-144 16 -187 105 -187 346c0 271 54 351 242 351c133 0 190 -40 202 -175h-85c-15 87 -45 102 -112 102c-126 0 -161 -60 -161 -276c0 -217 35 -278 158 -278
c78 0 108 24 121 97h85c-12 -128 -70 -168 -198 -170l-47 -54c97 -1 118 -18 118 -79c0 -70 -26 -90 -115 -90z" />
    <glyph glyph-name="Cdotaccent" unicode="&#x10a;" 
d="M326 -10c-189 0 -243 79 -243 349c0 271 54 351 242 351c133 0 190 -40 202 -175h-85c-15 87 -45 102 -112 102c-126 0 -161 -60 -161 -276c0 -217 35 -278 158 -278c78 0 108 24 121 97h85c-12 -131 -73 -170 -207 -170zM253 788v108h106v-108h-106z" />
    <glyph glyph-name="D" unicode="D" 
d="M221 -8c-57 1 -88 3 -138 8v680c55 5 120 6 189 -1c198 -21 259 -98 259 -349c0 -266 -68 -340 -310 -338zM169 71c56 -4 79 -5 116 -2c116 10 160 66 160 272c0 189 -37 244 -174 262c-37 5 -73 6 -102 5v-537z" />
    <glyph glyph-name="Eth" unicode="&#xd0;" 
d="M23 313v76h58v291c55 5 120 6 189 -1c198 -21 259 -98 259 -349c0 -266 -68 -340 -310 -338c-57 1 -88 3 -138 8v313h-58zM167 71c56 -4 79 -5 116 -2c116 10 160 66 160 272c0 189 -37 244 -174 262c-37 5 -73 6 -102 5v-219h126v-76h-126v-242z" />
    <glyph glyph-name="Dcaron" unicode="&#x10e;" 
d="M221 -8c-57 1 -88 3 -138 8v680c55 5 120 6 189 -1c198 -21 259 -98 259 -349c0 -266 -68 -340 -310 -338zM101 937h88l90 -110h17l90 110h88l-148 -181h-77zM169 71c56 -4 79 -5 116 -2c116 10 160 66 160 272c0 189 -37 244 -174 262c-37 5 -73 6 -102 5v-537z" />
    <glyph glyph-name="Dcroat" unicode="&#x110;" 
d="M23 313v76h58v291c55 5 120 6 189 -1c198 -21 259 -98 259 -349c0 -266 -68 -340 -310 -338c-57 1 -88 3 -138 8v313h-58zM167 71c56 -4 79 -5 116 -2c116 10 160 66 160 272c0 189 -37 244 -174 262c-37 5 -73 6 -102 5v-219h126v-76h-126v-242z" />
    <glyph glyph-name="E" unicode="E" 
d="M114 0v680h377v-78h-291v-209h253v-78h-253v-237h311v-78h-397z" />
    <glyph glyph-name="Eacute" unicode="&#xc9;" 
d="M114 0v680h377v-78h-291v-209h253v-78h-253v-237h311v-78h-397zM188 760l138 177h117l-155 -177h-100z" />
    <glyph glyph-name="Ecaron" unicode="&#x11a;" 
d="M114 0v680h377v-78h-291v-209h253v-78h-253v-237h311v-78h-397zM107 937h88l90 -110h17l90 110h88l-148 -181h-77z" />
    <glyph glyph-name="Ecircumflex" unicode="&#xca;" 
d="M114 0v680h377v-78h-291v-209h253v-78h-253v-237h311v-78h-397zM107 756l148 181h77l148 -181h-88l-90 110h-17l-90 -110h-88z" />
    <glyph glyph-name="Edieresis" unicode="&#xcb;" 
d="M114 0v680h377v-78h-291v-209h253v-78h-253v-237h311v-78h-397zM140 787v108h106v-108h-106zM342 787v108h106v-108h-106z" />
    <glyph glyph-name="Edotaccent" unicode="&#x116;" 
d="M114 0v680h377v-78h-291v-209h253v-78h-253v-237h311v-78h-397zM241 787v108h106v-108h-106z" />
    <glyph glyph-name="Egrave" unicode="&#xc8;" 
d="M114 0v680h377v-78h-291v-209h253v-78h-253v-237h311v-78h-397zM104 937h117l138 -177h-100z" />
    <glyph glyph-name="Emacron" unicode="&#x112;" 
d="M114 0v680h377v-78h-291v-209h253v-78h-253v-237h311v-78h-397zM142 818v66h303v-66h-303z" />
    <glyph glyph-name="Eogonek" unicode="&#x118;" 
d="M463 -174c-84 0 -105 22 -93 95c5 33 23 51 81 79h-337v680h377v-78h-291v-209h253v-78h-253v-237h311v-78h24l-38 -17c-45 -20 -59 -34 -63 -59c-6 -36 5 -47 48 -47c16 0 25 1 39 6v-49c-28 -6 -41 -8 -58 -8z" />
    <glyph glyph-name="uni018F" unicode="&#x18f;" 
d="M300 -10c-151 0 -202 43 -225 187h94c20 -79 50 -102 132 -102c111 0 145 52 150 229h-388c-10 298 44 386 237 386c182 0 236 -80 236 -352c0 -268 -54 -348 -236 -348zM144 387h306c-8 167 -42 217 -150 217c-120 0 -156 -50 -156 -217z" />
    <glyph glyph-name="F" unicode="F" 
d="M112 0v680h407v-79h-321v-221h282v-79h-282v-301h-86z" />
    <glyph glyph-name="G" unicode="G" 
d="M329 -10c-199 0 -258 78 -258 354c0 269 56 346 249 346c144 0 197 -43 208 -169h-83c-9 68 -42 90 -124 90c-129 0 -164 -55 -164 -268c0 -222 38 -274 172 -274c47 0 79 6 118 25v192h-135v79h215v-327c-75 -37 -123 -48 -198 -48z" />
    <glyph glyph-name="Gbreve" unicode="&#x11e;" 
d="M329 -10c-199 0 -258 78 -258 354c0 269 56 346 249 346c144 0 197 -43 208 -169h-83c-9 68 -42 90 -124 90c-129 0 -164 -55 -164 -268c0 -222 38 -274 172 -274c47 0 79 6 118 25v192h-135v79h215v-327c-75 -37 -123 -48 -198 -48zM117 919h73c15 -56 43 -78 98 -78
s83 22 98 78h73c-18 -101 -67 -142 -171 -142c-105 0 -154 41 -171 142z" />
    <glyph glyph-name="uni0122" unicode="&#x122;" 
d="M222 -260l61 187h90l-80 -187h-71zM71 344c0 269 56 346 249 346c144 0 197 -43 208 -169h-83c-9 68 -42 90 -124 90c-129 0 -164 -55 -164 -268c0 -222 38 -274 172 -274c47 0 79 6 118 25v192h-135v79h215v-327c-75 -37 -123 -48 -198 -48c-199 0 -258 78 -258 354z
" />
    <glyph glyph-name="Gdotaccent" unicode="&#x120;" 
d="M329 -10c-199 0 -258 78 -258 354c0 269 56 346 249 346c144 0 197 -43 208 -169h-83c-9 68 -42 90 -124 90c-129 0 -164 -55 -164 -268c0 -222 38 -274 172 -274c47 0 79 6 118 25v192h-135v79h215v-327c-75 -37 -123 -48 -198 -48zM235 788v108h106v-108h-106z" />
    <glyph glyph-name="H" unicode="H" 
d="M78 0v680h86v-286h272v286h86v-680h-86v315h-272v-315h-86z" />
    <glyph glyph-name="Hbar" unicode="&#x126;" 
d="M24 531v66h66v83h81v-83h257v83h82v-83h66v-66h-66v-531h-82v315h-257v-315h-81v531h-66zM171 394h257v137h-257v-137z" />
    <glyph glyph-name="I" unicode="I" 
d="M129 0v79h128v522h-121v79h328v-79h-121v-522h127v-79h-341z" />
    <glyph glyph-name="IJ" unicode="&#x132;" 
d="M369 -9c-133 0 -173 34 -173 149h86c4 -56 23 -73 84 -73c66 0 86 30 86 133v480h85v-484c0 -158 -38 -205 -168 -205zM62 0v680h83v-680h-83z" />
    <glyph glyph-name="Iacute" unicode="&#xcd;" 
d="M129 0v79h128v522h-121v79h328v-79h-121v-522h127v-79h-341zM182 760l138 177h117l-155 -177h-100z" />
    <glyph glyph-name="Icircumflex" unicode="&#xce;" 
d="M129 0v79h128v522h-121v79h328v-79h-121v-522h127v-79h-341zM101 756l148 181h77l148 -181h-88l-90 110h-17l-90 -110h-88z" />
    <glyph glyph-name="Idieresis" unicode="&#xcf;" 
d="M129 0v79h128v522h-121v79h328v-79h-121v-522h127v-79h-341zM134 787v108h106v-108h-106zM336 787v108h106v-108h-106z" />
    <glyph glyph-name="Idotaccent" unicode="&#x130;" 
d="M129 0v79h128v522h-121v79h328v-79h-121v-522h127v-79h-341zM235 787v108h106v-108h-106z" />
    <glyph glyph-name="Igrave" unicode="&#xcc;" 
d="M129 0v79h128v522h-121v79h328v-79h-121v-522h127v-79h-341zM98 937h117l138 -177h-100z" />
    <glyph glyph-name="Imacron" unicode="&#x12a;" 
d="M129 0v79h128v522h-121v79h328v-79h-121v-522h127v-79h-341zM136 818v66h303v-66h-303z" />
    <glyph glyph-name="Iogonek" unicode="&#x12e;" 
d="M416 -174c-84 0 -105 22 -93 95c5 33 23 51 81 79h-275v79h128v522h-121v79h328v-79h-121v-522h127v-79h18l-38 -17c-45 -20 -59 -34 -63 -59c-6 -36 5 -47 48 -47c16 0 25 1 39 6v-49c-28 -6 -41 -8 -58 -8z" />
    <glyph glyph-name="J" unicode="J" 
d="M278 -9c-152 0 -197 43 -197 188h86c2 -86 28 -109 108 -109c91 0 119 27 119 128v482h86v-486c0 -157 -48 -203 -202 -203z" />
    <glyph glyph-name="K" unicode="K" 
d="M87 0v680h86v-325l242 325h100l-251 -331v-3l294 -346h-111l-274 333v-333h-86z" />
    <glyph glyph-name="uni0136" unicode="&#x136;" 
d="M222 -260l61 187h90l-80 -187h-71zM87 0v680h86v-325l242 325h100l-251 -331v-3l294 -346h-111l-274 333v-333h-86z" />
    <glyph glyph-name="L" unicode="L" 
d="M116 1v679h86v-600h330v-79h-416z" />
    <glyph glyph-name="Lacute" unicode="&#x139;" 
d="M116 1v679h86v-600h330v-79h-416zM94 760l138 177h117l-155 -177h-100z" />
    <glyph glyph-name="Lcaron" unicode="&#x13d;" 
d="M116 1v679h86v-600h330v-79h-416zM304 377l31 187h88l-50 -187h-69z" />
    <glyph glyph-name="uni013B" unicode="&#x13b;" 
d="M222 -260l61 187h90l-80 -187h-71zM116 1v679h86v-600h330v-79h-416z" />
    <glyph glyph-name="Lslash" unicode="&#x141;" 
d="M9 282v80l147 75v243h86v-199l120 61v-80l-120 -61v-321h330v-79h-416v356z" />
    <glyph glyph-name="M" unicode="M" 
d="M57 0v680h114l123 -342h11l123 342h114v-680h-82v424l10 148h-5l-125 -331h-81l-125 331h-5l10 -148v-424h-82z" />
    <glyph glyph-name="N" unicode="N" 
d="M73 0v680h101l276 -562h5l-13 138v424h84v-680h-102l-275 562h-5l13 -138v-424h-84z" />
    <glyph glyph-name="Nacute" unicode="&#x143;" 
d="M73 0v680h101l276 -562h5l-13 138v424h84v-680h-102l-275 562h-5l13 -138v-424h-84zM182 760l138 177h117l-155 -177h-100z" />
    <glyph glyph-name="Ncaron" unicode="&#x147;" 
d="M73 0v680h101l276 -562h5l-13 138v424h84v-680h-102l-275 562h-5l13 -138v-424h-84zM101 937h88l90 -110h17l90 110h88l-148 -181h-77z" />
    <glyph glyph-name="uni0145" unicode="&#x145;" 
d="M222 -260l61 187h90l-80 -187h-71zM73 0v680h101l276 -562h5l-13 138v424h84v-680h-102l-275 562h-5l13 -138v-424h-84z" />
    <glyph glyph-name="Ntilde" unicode="&#xd1;" 
d="M73 0v680h101l276 -562h5l-13 138v424h84v-680h-102l-275 562h-5l13 -138v-424h-84zM99 782c0 119 11 134 100 134c43 0 60 -6 109 -56c43 -43 52 -50 71 -50c30 0 32 7 32 79h65c0 -121 -11 -137 -101 -137c-42 0 -56 5 -105 55c-42 42 -54 50 -74 50
c-29 0 -31 -6 -31 -75h-66z" />
    <glyph glyph-name="O" unicode="O" 
d="M300 -10c-181 0 -237 80 -237 348c0 272 56 352 237 352s236 -81 236 -352c0 -267 -55 -348 -236 -348zM149 338c0 -209 34 -271 151 -271c116 0 150 62 150 271c0 212 -34 275 -150 275c-117 0 -151 -63 -151 -275z" />
    <glyph glyph-name="Oacute" unicode="&#xd3;" 
d="M300 -10c-181 0 -237 80 -237 348c0 272 56 352 237 352s236 -81 236 -352c0 -267 -55 -348 -236 -348zM149 338c0 -209 34 -271 151 -271c116 0 150 62 150 271c0 212 -34 275 -150 275c-117 0 -151 -63 -151 -275zM182 761l138 177h117l-155 -177h-100z" />
    <glyph glyph-name="Ocircumflex" unicode="&#xd4;" 
d="M300 -10c-181 0 -237 80 -237 348c0 272 56 352 237 352s236 -81 236 -352c0 -267 -55 -348 -236 -348zM101 757l148 181h77l148 -181h-88l-90 110h-17l-90 -110h-88zM149 338c0 -209 34 -271 151 -271c116 0 150 62 150 271c0 212 -34 275 -150 275
c-117 0 -151 -63 -151 -275z" />
    <glyph glyph-name="Odieresis" unicode="&#xd6;" 
d="M300 -10c-181 0 -237 80 -237 348c0 272 56 352 237 352s236 -81 236 -352c0 -267 -55 -348 -236 -348zM134 788v108h106v-108h-106zM149 338c0 -209 34 -271 151 -271c116 0 150 62 150 271c0 212 -34 275 -150 275c-117 0 -151 -63 -151 -275zM336 788v108h106v-108
h-106z" />
    <glyph glyph-name="Ograve" unicode="&#xd2;" 
d="M300 -10c-181 0 -237 80 -237 348c0 272 56 352 237 352s236 -81 236 -352c0 -267 -55 -348 -236 -348zM98 938h117l138 -177h-100zM149 338c0 -209 34 -271 151 -271c116 0 150 62 150 271c0 212 -34 275 -150 275c-117 0 -151 -63 -151 -275z" />
    <glyph glyph-name="Ohungarumlaut" unicode="&#x150;" 
d="M300 -10c-181 0 -237 80 -237 348c0 272 56 352 237 352s236 -81 236 -352c0 -267 -55 -348 -236 -348zM122 761l138 177h117l-155 -177h-100zM149 338c0 -209 34 -271 151 -271c116 0 150 62 150 271c0 212 -34 275 -150 275c-117 0 -151 -63 -151 -275zM342 762
l138 177h117l-155 -177h-100z" />
    <glyph glyph-name="Omacron" unicode="&#x14c;" 
d="M300 -10c-181 0 -237 80 -237 348c0 272 56 352 237 352s236 -81 236 -352c0 -267 -55 -348 -236 -348zM136 819v66h303v-66h-303zM149 338c0 -209 34 -271 151 -271c116 0 150 62 150 271c0 212 -34 275 -150 275c-117 0 -151 -63 -151 -275z" />
    <glyph glyph-name="Oslash" unicode="&#xd8;" 
d="M69 13l-58 48l68 81c-13 50 -18 114 -18 196c0 272 56 352 237 352c88 0 146 -19 182 -69l47 55l57 -48l-70 -83c14 -52 20 -119 20 -207c0 -267 -55 -348 -236 -348c-91 0 -150 20 -187 74zM147 338c0 -42 1 -79 5 -109l268 319c-23 48 -61 65 -122 65
c-117 0 -151 -63 -151 -275zM172 137c23 -51 62 -70 126 -70c116 0 150 62 150 271c0 47 -2 87 -6 121z" />
    <glyph glyph-name="Otilde" unicode="&#xd5;" 
d="M300 -10c-181 0 -237 80 -237 348c0 272 56 352 237 352s236 -81 236 -352c0 -267 -55 -348 -236 -348zM99 783c0 119 11 134 100 134c43 0 60 -6 109 -56c43 -43 52 -50 71 -50c30 0 32 7 32 79h65c0 -121 -11 -137 -101 -137c-42 0 -56 5 -105 55c-42 42 -54 50 -74 50
c-29 0 -31 -6 -31 -75h-66zM149 338c0 -209 34 -271 151 -271c116 0 150 62 150 271c0 212 -34 275 -150 275c-117 0 -151 -63 -151 -275z" />
    <glyph glyph-name="OE" unicode="&#x152;" 
d="M184 -10c-133 0 -172 80 -172 350s40 350 173 350c62 0 90 -17 125 -76h6v66h271v-76h-191v-212h181v-76h-181v-240h191v-76h-271v64h-6c-36 -57 -64 -74 -126 -74zM98 339c0 -211 24 -273 106 -273c86 0 112 63 112 274s-25 274 -111 274c-83 0 -107 -63 -107 -275z" />
    <glyph glyph-name="P" unicode="P" 
d="M109 680c117 3 118 3 131 3c224 0 289 -48 289 -216c0 -157 -57 -207 -246 -207h-88v-260h-86v680zM195 339h79c130 0 170 31 170 133c0 104 -41 133 -187 133h-62v-266z" />
    <glyph glyph-name="Thorn" unicode="&#xde;" 
d="M105 0v680h83v-118l52 1c231 4 299 -44 299 -212c0 -162 -58 -210 -254 -210h-96v-141h-84zM189 218h86c138 0 179 32 179 138c0 100 -45 129 -197 129h-68v-267z" />
    <glyph glyph-name="Q" unicode="Q" 
d="M423 -97l-56 92c-20 -3 -42 -5 -67 -5c-181 0 -237 80 -237 348c0 272 56 352 237 352s236 -81 236 -352c0 -181 -25 -277 -98 -319l87 -116h-102zM149 338c0 -209 34 -271 151 -271l18 1l-78 116h81l67 -95c46 33 62 107 62 249c0 212 -34 275 -150 275
c-117 0 -151 -63 -151 -275z" />
    <glyph glyph-name="R" unicode="R" 
d="M90 0v680l100 3c252 7 311 -40 315 -187c3 -110 -27 -159 -122 -170v-6c62 -11 83 -39 105 -122l52 -198h-95l-44 198c-16 74 -50 95 -142 95h-83v-293h-86zM176 372l147 1c75 2 98 31 98 119c0 81 -20 101 -103 111c-52 6 -76 5 -142 0v-231z" />
    <glyph glyph-name="Racute" unicode="&#x154;" 
d="M90 0v680l100 3c252 7 311 -40 315 -187c3 -110 -27 -159 -122 -170v-6c62 -11 83 -39 105 -122l52 -198h-95l-44 198c-16 74 -50 95 -142 95h-83v-293h-86zM176 372l147 1c75 2 98 31 98 119c0 81 -20 101 -103 111c-52 6 -76 5 -142 0v-231zM190 761l138 177h117
l-155 -177h-100z" />
    <glyph glyph-name="Rcaron" unicode="&#x158;" 
d="M90 0v680l100 3c252 7 311 -40 315 -187c3 -110 -27 -159 -122 -170v-6c62 -11 83 -39 105 -122l52 -198h-95l-44 198c-16 74 -50 95 -142 95h-83v-293h-86zM109 938h88l90 -110h17l90 110h88l-148 -181h-77zM176 372l147 1c75 2 98 31 98 119c0 81 -20 101 -103 111
c-52 6 -76 5 -142 0v-231z" />
    <glyph glyph-name="uni0156" unicode="&#x156;" 
d="M222 -260l61 187h90l-80 -187h-71zM90 0v680l100 3c252 7 311 -40 315 -187c3 -110 -27 -159 -122 -170v-6c62 -11 83 -39 105 -122l52 -198h-95l-44 198c-16 74 -50 95 -142 95h-83v-293h-86zM176 372l147 1c75 2 98 31 98 119c0 81 -20 101 -103 111
c-52 6 -76 5 -142 0v-231z" />
    <glyph glyph-name="S" unicode="S" 
d="M300 -7c-181 0 -232 40 -232 185h87c8 -85 38 -108 147 -109s147 18 147 99c0 82 -40 113 -182 158c-152 48 -194 88 -194 200c0 127 52 163 223 163c168 0 216 -35 223 -161h-86c-7 68 -38 85 -135 85c-111 0 -142 -23 -142 -88c0 -68 40 -92 185 -141
c149 -51 191 -93 191 -217c0 -134 -50 -174 -232 -174z" />
    <glyph glyph-name="Sacute" unicode="&#x15a;" 
d="M300 -7c-181 0 -232 40 -232 185h87c8 -85 38 -108 147 -109s147 18 147 99c0 82 -40 113 -182 158c-152 48 -194 88 -194 200c0 127 52 163 223 163c168 0 216 -35 223 -161h-86c-7 68 -38 85 -135 85c-111 0 -142 -23 -142 -88c0 -68 40 -92 185 -141
c149 -51 191 -93 191 -217c0 -134 -50 -174 -232 -174zM214 763l138 177h117l-155 -177h-100z" />
    <glyph glyph-name="Scaron" unicode="&#x160;" 
d="M300 -7c-181 0 -232 40 -232 185h87c8 -85 38 -108 147 -109s147 18 147 99c0 82 -40 113 -182 158c-152 48 -194 88 -194 200c0 127 52 163 223 163c168 0 216 -35 223 -161h-86c-7 68 -38 85 -135 85c-111 0 -142 -23 -142 -88c0 -68 40 -92 185 -141
c149 -51 191 -93 191 -217c0 -134 -50 -174 -232 -174zM133 940h88l90 -110h17l90 110h88l-148 -181h-77z" />
    <glyph glyph-name="Scedilla" unicode="&#x15e;" 
d="M293 -233c-25 0 -39 2 -62 8v49c15 -4 28 -6 56 -6c44 0 58 9 58 37c0 27 -17 34 -72 34h-36v43l35 61c-158 5 -204 48 -204 185h87c8 -85 38 -108 147 -109s147 18 147 99c0 82 -40 113 -182 158c-152 48 -194 88 -194 200c0 127 52 163 223 163c168 0 216 -35 223 -161
h-86c-7 68 -38 85 -135 85c-111 0 -142 -23 -142 -88c0 -68 40 -92 185 -141c149 -51 191 -93 191 -217c0 -123 -42 -167 -191 -173l-51 -58c97 -1 118 -18 118 -79c0 -70 -26 -90 -115 -90z" />
    <glyph glyph-name="uni0218" unicode="&#x218;" 
d="M244 -260l61 187h90l-80 -187h-71zM68 178h87c8 -85 38 -108 147 -109s147 18 147 99c0 82 -40 113 -182 158c-152 48 -194 88 -194 200c0 127 52 163 223 163c168 0 216 -35 223 -161h-86c-7 68 -38 85 -135 85c-111 0 -142 -23 -142 -88c0 -68 40 -92 185 -141
c149 -51 191 -93 191 -217c0 -134 -50 -174 -232 -174c-181 0 -232 40 -232 185z" />
    <glyph glyph-name="uni1E9E" unicode="&#x1e9e;" 
d="M349 -9c-47 0 -95 7 -137 24v87c53 -24 98 -35 138 -35c83 0 116 47 116 136c0 116 -56 149 -222 126v94l190 179v4h-282v-606h-86v680h458v-96l-186 -176l2 -4c146 11 210 -40 210 -197c0 -150 -58 -216 -201 -216z" />
    <glyph glyph-name="T" unicode="T" 
d="M256 0v601h-184v79h455v-79h-185v-601h-86z" />
    <glyph glyph-name="Tcaron" unicode="&#x164;" 
d="M256 0v601h-184v79h455v-79h-185v-601h-86zM101 937h88l90 -110h17l90 110h88l-148 -181h-77z" />
    <glyph glyph-name="uni0162" unicode="&#x162;" 
d="M272 -233c-25 0 -39 2 -62 8v49c15 -4 28 -6 56 -6c44 0 58 9 58 37c0 27 -17 34 -72 34h-36v43l40 68h-2v601h-184v79h455v-79h-185v-601h2l-73 -64c97 -1 118 -18 118 -79c0 -70 -26 -90 -115 -90z" />
    <glyph glyph-name="uni021A" unicode="&#x21a;" 
d="M192 -260l61 187h90l-80 -187h-71zM72 601v79h455v-79h-185v-601h-86v601h-184z" />
    <glyph glyph-name="U" unicode="U" 
d="M304 -9c-172 0 -224 51 -224 223v466h86v-461c0 -116 32 -149 138 -149c100 0 129 33 129 148v462h86v-465c0 -173 -50 -224 -215 -224z" />
    <glyph glyph-name="Uacute" unicode="&#xda;" 
d="M304 -9c-172 0 -224 51 -224 223v466h86v-461c0 -116 32 -149 138 -149c100 0 129 33 129 148v462h86v-465c0 -173 -50 -224 -215 -224zM182 760l138 177h117l-155 -177h-100z" />
    <glyph glyph-name="Ucircumflex" unicode="&#xdb;" 
d="M304 -9c-172 0 -224 51 -224 223v466h86v-461c0 -116 32 -149 138 -149c100 0 129 33 129 148v462h86v-465c0 -173 -50 -224 -215 -224zM101 756l148 181h77l148 -181h-88l-90 110h-17l-90 -110h-88z" />
    <glyph glyph-name="Udieresis" unicode="&#xdc;" 
d="M304 -9c-172 0 -224 51 -224 223v466h86v-461c0 -116 32 -149 138 -149c100 0 129 33 129 148v462h86v-465c0 -173 -50 -224 -215 -224zM134 787v108h106v-108h-106zM336 787v108h106v-108h-106z" />
    <glyph glyph-name="Ugrave" unicode="&#xd9;" 
d="M304 -9c-172 0 -224 51 -224 223v466h86v-461c0 -116 32 -149 138 -149c100 0 129 33 129 148v462h86v-465c0 -173 -50 -224 -215 -224zM98 937h117l138 -177h-100z" />
    <glyph glyph-name="Uhungarumlaut" unicode="&#x170;" 
d="M304 -9c-172 0 -224 51 -224 223v466h86v-461c0 -116 32 -149 138 -149c100 0 129 33 129 148v462h86v-465c0 -173 -50 -224 -215 -224zM122 760l138 177h117l-155 -177h-100zM342 761l138 177h117l-155 -177h-100z" />
    <glyph glyph-name="Umacron" unicode="&#x16a;" 
d="M304 -9c-172 0 -224 51 -224 223v466h86v-461c0 -116 32 -149 138 -149c100 0 129 33 129 148v462h86v-465c0 -173 -50 -224 -215 -224zM136 818v66h303v-66h-303z" />
    <glyph glyph-name="Uogonek" unicode="&#x172;" 
d="M323 -174c-84 0 -105 22 -93 95c4 29 19 47 63 70c-163 2 -213 55 -213 223v466h86v-461c0 -116 32 -149 138 -149c100 0 129 33 129 148v462h86v-465c0 -138 -32 -199 -129 -217l-33 -15c-45 -20 -59 -34 -63 -59c-6 -36 5 -47 48 -47c16 0 25 1 39 6v-49
c-28 -6 -41 -8 -58 -8z" />
    <glyph glyph-name="Uring" unicode="&#x16e;" 
d="M304 -9c-172 0 -224 51 -224 223v466h86v-461c0 -116 32 -149 138 -149c100 0 129 33 129 148v462h86v-465c0 -173 -50 -224 -215 -224zM188 847c0 71 28 100 98 100c72 0 101 -29 101 -100c0 -70 -29 -98 -101 -98c-70 0 -98 28 -98 98zM243 847c0 -36 11 -49 43 -49
c34 0 46 13 46 49c0 39 -12 53 -46 53c-32 0 -43 -14 -43 -53z" />
    <glyph glyph-name="V" unicode="V" 
d="M243 0l-206 680h86l172 -585h9l172 585h86l-206 -680h-113z" />
    <glyph glyph-name="W" unicode="W" 
d="M108 0l-91 680h81l60 -575h4l6 94l82 481h99l82 -481l7 -94h4l59 575h81l-90 -680h-96l-94 612h-4l-94 -612h-96z" />
    <glyph glyph-name="Wacute" unicode="&#x1e82;" 
d="M108 0l-91 680h81l60 -575h4l6 94l82 481h99l82 -481l7 -94h4l59 575h81l-90 -680h-96l-94 612h-4l-94 -612h-96zM196 760l138 177h117l-155 -177h-100z" />
    <glyph glyph-name="Wcircumflex" unicode="&#x174;" 
d="M108 0l-91 680h81l60 -575h4l6 94l82 481h99l82 -481l7 -94h4l59 575h81l-90 -680h-96l-94 612h-4l-94 -612h-96zM115 756l148 181h77l148 -181h-88l-90 110h-17l-90 -110h-88z" />
    <glyph glyph-name="Wdieresis" unicode="&#x1e84;" 
d="M108 0l-91 680h81l60 -575h4l6 94l82 481h99l82 -481l7 -94h4l59 575h81l-90 -680h-96l-94 612h-4l-94 -612h-96zM148 787v108h106v-108h-106zM350 787v108h106v-108h-106z" />
    <glyph glyph-name="Wgrave" unicode="&#x1e80;" 
d="M108 0l-91 680h81l60 -575h4l6 94l82 481h99l82 -481l7 -94h4l59 575h81l-90 -680h-96l-94 612h-4l-94 -612h-96zM112 937h117l138 -177h-100z" />
    <glyph glyph-name="X" unicode="X" 
d="M47 0l207 356l-195 326h92l146 -253h6l142 253h97l-195 -326l206 -356h-96l-154 280h-4l-157 -280h-95z" />
    <glyph glyph-name="Y" unicode="Y" 
d="M256 0v277l-195 405h93l143 -314h5l144 314h92l-196 -405v-277h-86z" />
    <glyph glyph-name="Yacute" unicode="&#xdd;" 
d="M256 0v277l-195 405h93l143 -314h5l144 314h92l-196 -405v-277h-86zM195 760l138 177h117l-155 -177h-100z" />
    <glyph glyph-name="Ycircumflex" unicode="&#x176;" 
d="M256 0v277l-195 405h93l143 -314h5l144 314h92l-196 -405v-277h-86zM114 756l148 181h77l148 -181h-88l-90 110h-17l-90 -110h-88z" />
    <glyph glyph-name="Ydieresis" unicode="&#x178;" 
d="M256 0v277l-195 405h93l143 -314h5l144 314h92l-196 -405v-277h-86zM147 787v108h106v-108h-106zM349 787v108h106v-108h-106z" />
    <glyph glyph-name="Ygrave" unicode="&#x1ef2;" 
d="M256 0v277l-195 405h93l143 -314h5l144 314h92l-196 -405v-277h-86zM111 937h117l138 -177h-100z" />
    <glyph glyph-name="Z" unicode="Z" 
d="M80 0v69l340 532h-323v79h422v-69l-342 -532h342v-79h-439z" />
    <glyph glyph-name="Zacute" unicode="&#x179;" 
d="M80 0v69l340 532h-323v79h422v-69l-342 -532h342v-79h-439zM199 760l138 177h117l-155 -177h-100z" />
    <glyph glyph-name="Zcaron" unicode="&#x17d;" 
d="M80 0v69l340 532h-323v79h422v-69l-342 -532h342v-79h-439zM118 937h88l90 -110h17l90 110h88l-148 -181h-77z" />
    <glyph glyph-name="Zdotaccent" unicode="&#x17b;" 
d="M80 0v69l340 532h-323v79h422v-69l-342 -532h342v-79h-439zM252 787v108h106v-108h-106z" />
    <glyph glyph-name="a" unicode="a" 
d="M249 -10c-125 0 -162 35 -162 155c0 142 53 184 232 184h94v25c0 83 -27 108 -119 108c-81 0 -105 -17 -107 -75h-84c0 114 44 148 191 148c153 0 198 -41 198 -181v-354h-76v67h-7c-34 -59 -71 -77 -160 -77zM171 154c0 -69 23 -89 99 -89c109 0 142 44 142 193l-113 -1
c-99 -1 -128 -25 -128 -103z" />
    <glyph glyph-name="aacute" unicode="&#xe1;" 
d="M249 -10c-125 0 -162 35 -162 155c0 142 53 184 232 184h94v25c0 83 -27 108 -119 108c-81 0 -105 -17 -107 -75h-84c0 114 44 148 191 148c153 0 198 -41 198 -181v-354h-76v67h-7c-34 -59 -71 -77 -160 -77zM171 154c0 -69 23 -89 99 -89c109 0 142 44 142 193l-113 -1
c-99 -1 -128 -25 -128 -103zM183 606l138 177h117l-155 -177h-100z" />
    <glyph glyph-name="abreve" unicode="&#x103;" 
d="M249 -10c-125 0 -162 35 -162 155c0 142 53 184 232 184h94v25c0 83 -27 108 -119 108c-81 0 -105 -17 -107 -75h-84c0 114 44 148 191 148c153 0 198 -41 198 -181v-354h-76v67h-7c-34 -59 -71 -77 -160 -77zM118 764h73c15 -56 43 -78 98 -78s83 22 98 78h73
c-18 -101 -67 -142 -171 -142c-105 0 -154 41 -171 142zM171 154c0 -69 23 -89 99 -89c109 0 142 44 142 193l-113 -1c-99 -1 -128 -25 -128 -103z" />
    <glyph glyph-name="acircumflex" unicode="&#xe2;" 
d="M249 -10c-125 0 -162 35 -162 155c0 142 53 184 232 184h94v25c0 83 -27 108 -119 108c-81 0 -105 -17 -107 -75h-84c0 114 44 148 191 148c153 0 198 -41 198 -181v-354h-76v67h-7c-34 -59 -71 -77 -160 -77zM102 602l148 181h77l148 -181h-88l-90 110h-17l-90 -110h-88
zM171 154c0 -69 23 -89 99 -89c109 0 142 44 142 193l-113 -1c-99 -1 -128 -25 -128 -103z" />
    <glyph glyph-name="adieresis" unicode="&#xe4;" 
d="M249 -10c-125 0 -162 35 -162 155c0 142 53 184 232 184h94v25c0 83 -27 108 -119 108c-81 0 -105 -17 -107 -75h-84c0 114 44 148 191 148c153 0 198 -41 198 -181v-354h-76v67h-7c-34 -59 -71 -77 -160 -77zM135 633v108h106v-108h-106zM171 154c0 -69 23 -89 99 -89
c109 0 142 44 142 193l-113 -1c-99 -1 -128 -25 -128 -103zM337 633v108h106v-108h-106z" />
    <glyph glyph-name="agrave" unicode="&#xe0;" 
d="M249 -10c-125 0 -162 35 -162 155c0 142 53 184 232 184h94v25c0 83 -27 108 -119 108c-81 0 -105 -17 -107 -75h-84c0 114 44 148 191 148c153 0 198 -41 198 -181v-354h-76v67h-7c-34 -59 -71 -77 -160 -77zM99 783h117l138 -177h-100zM171 154c0 -69 23 -89 99 -89
c109 0 142 44 142 193l-113 -1c-99 -1 -128 -25 -128 -103z" />
    <glyph glyph-name="amacron" unicode="&#x101;" 
d="M249 -10c-125 0 -162 35 -162 155c0 142 53 184 232 184h94v25c0 83 -27 108 -119 108c-81 0 -105 -17 -107 -75h-84c0 114 44 148 191 148c153 0 198 -41 198 -181v-354h-76v67h-7c-34 -59 -71 -77 -160 -77zM137 664v66h303v-66h-303zM171 154c0 -69 23 -89 99 -89
c109 0 142 44 142 193l-113 -1c-99 -1 -128 -25 -128 -103z" />
    <glyph glyph-name="aogonek" unicode="&#x105;" 
d="M418 -174c-84 0 -105 22 -93 95c5 33 31 51 89 79v67h-7c-34 -59 -71 -77 -160 -77c-125 0 -162 35 -162 155c0 142 53 184 232 184h94v25c0 83 -27 108 -119 108c-81 0 -105 -17 -107 -75h-84c0 114 44 148 191 148c153 0 198 -41 198 -181v-354l-38 -17
c-45 -20 -59 -34 -63 -59c-6 -36 5 -47 48 -47c16 0 25 1 39 6v-49c-28 -6 -41 -8 -58 -8zM169 154c0 -69 23 -89 99 -89c109 0 142 44 142 193l-113 -1c-99 -1 -128 -25 -128 -103z" />
    <glyph glyph-name="aring" unicode="&#xe5;" 
d="M249 -10c-125 0 -162 35 -162 155c0 142 53 184 232 184h94v25c0 83 -27 108 -119 108c-81 0 -105 -17 -107 -75h-84c0 114 44 148 191 148c153 0 198 -41 198 -181v-354h-76v67h-7c-34 -59 -71 -77 -160 -77zM171 154c0 -69 23 -89 99 -89c109 0 142 44 142 193l-113 -1
c-99 -1 -128 -25 -128 -103zM189 693c0 71 28 100 98 100c72 0 101 -29 101 -100c0 -70 -29 -98 -101 -98c-70 0 -98 28 -98 98zM244 693c0 -36 11 -49 43 -49c34 0 46 13 46 49c0 39 -12 53 -46 53c-32 0 -43 -14 -43 -53z" />
    <glyph glyph-name="atilde" unicode="&#xe3;" 
d="M249 -10c-125 0 -162 35 -162 155c0 142 53 184 232 184h94v25c0 83 -27 108 -119 108c-81 0 -105 -17 -107 -75h-84c0 114 44 148 191 148c153 0 198 -41 198 -181v-354h-76v67h-7c-34 -59 -71 -77 -160 -77zM100 628c0 119 11 134 100 134c43 0 60 -6 109 -56
c43 -43 52 -50 71 -50c30 0 32 7 32 79h65c0 -121 -11 -137 -101 -137c-42 0 -56 5 -105 55c-42 42 -54 50 -74 50c-29 0 -31 -6 -31 -75h-66zM171 154c0 -69 23 -89 99 -89c109 0 142 44 142 193l-113 -1c-99 -1 -128 -25 -128 -103z" />
    <glyph glyph-name="ae" unicode="&#xe6;" 
d="M159 -10c-109 0 -141 35 -141 151c0 136 45 176 195 176h65c0 115 -22 149 -95 149c-56 0 -73 -18 -74 -79h-74c0 113 32 148 137 148c82 0 110 -21 129 -92h7c17 71 45 92 117 92c126 0 160 -66 157 -287h-245c6 -143 26 -186 89 -186c37 0 56 14 68 72h77
c-22 -111 -54 -144 -139 -144c-74 0 -102 25 -121 109h-8c-16 -84 -49 -109 -144 -109zM90 151c0 -67 18 -88 78 -88c84 0 109 42 109 185h-85c-79 0 -102 -22 -102 -97zM337 314h170c-4 115 -23 149 -82 149c-60 0 -80 -34 -88 -149z" />
    <glyph glyph-name="b" unicode="b" 
d="M322 -10c-70 0 -101 15 -140 67h-7v-57h-83l1 728h83l-1 -261h8c32 52 64 67 142 67c159 0 206 -62 206 -271c0 -211 -48 -273 -209 -273zM173 263c0 -153 30 -198 131 -198c109 0 142 45 142 198c0 151 -33 196 -142 196c-101 0 -131 -45 -131 -196z" />
    <glyph glyph-name="c" unicode="c" 
d="M316 -10c-175 0 -227 62 -227 271c0 211 52 274 225 274c145 0 191 -38 198 -166h-83c-13 69 -38 90 -109 90c-113 0 -147 -46 -147 -200c0 -149 34 -193 148 -193c70 0 94 18 108 79h83c-8 -120 -54 -155 -196 -155z" />
    <glyph glyph-name="cacute" unicode="&#x107;" 
d="M316 -10c-175 0 -227 62 -227 271c0 211 52 274 225 274c145 0 191 -38 198 -166h-83c-13 69 -38 90 -109 90c-113 0 -147 -46 -147 -200c0 -149 34 -193 148 -193c70 0 94 18 108 79h83c-8 -120 -54 -155 -196 -155zM185 606l138 177h117l-155 -177h-100z" />
    <glyph glyph-name="ccaron" unicode="&#x10d;" 
d="M316 -10c-175 0 -227 62 -227 271c0 211 52 274 225 274c145 0 191 -38 198 -166h-83c-13 69 -38 90 -109 90c-113 0 -147 -46 -147 -200c0 -149 34 -193 148 -193c70 0 94 18 108 79h83c-8 -120 -54 -155 -196 -155zM104 783h88l90 -110h17l90 110h88l-148 -181h-77z
" />
    <glyph glyph-name="ccedilla" unicode="&#xe7;" 
d="M293 -233c-25 0 -39 2 -62 8v49c15 -4 28 -6 56 -6c44 0 58 9 58 37c0 27 -17 34 -72 34h-36v43l34 60c-139 11 -182 79 -182 269c0 211 52 274 225 274c145 0 191 -38 198 -166h-83c-13 69 -38 90 -109 90c-113 0 -147 -46 -147 -200c0 -149 34 -193 148 -193
c70 0 94 18 108 79h83c-8 -114 -49 -151 -174 -155l-48 -54c97 -1 118 -18 118 -79c0 -70 -26 -90 -115 -90z" />
    <glyph glyph-name="cdotaccent" unicode="&#x10b;" 
d="M316 -10c-175 0 -227 62 -227 271c0 211 52 274 225 274c145 0 191 -38 198 -166h-83c-13 69 -38 90 -109 90c-113 0 -147 -46 -147 -200c0 -149 34 -193 148 -193c70 0 94 18 108 79h83c-8 -120 -54 -155 -196 -155zM238 633v108h106v-108h-106z" />
    <glyph glyph-name="d" unicode="d" 
d="M276 -10c-161 0 -209 62 -209 273c0 209 47 271 206 271c78 0 111 -15 142 -67h8v261h83v-728h-83v57h-7c-38 -52 -70 -67 -140 -67zM152 263c0 -153 33 -198 142 -198c101 0 131 45 131 198c0 151 -30 196 -131 196c-109 0 -142 -45 -142 -196z" />
    <glyph glyph-name="eth" unicode="&#xf0;" 
d="M236 497l-41 52l70 54c-28 33 -60 68 -102 111h111l54 -62l67 52l40 -52l-65 -51c118 -147 145 -230 145 -375c0 -195 -38 -235 -222 -235c-182 0 -220 39 -220 231c0 186 35 225 207 225c71 0 93 -9 124 -49l5 4c-40 63 -70 108 -102 150zM155 223
c0 -132 24 -159 138 -159c118 0 142 28 140 162c-2 122 -26 147 -142 147c-113 0 -136 -26 -136 -150z" />
    <glyph glyph-name="dcaron" unicode="&#x10f;" 
d="M215 -10c-152 0 -198 62 -198 273c0 209 45 271 196 271c73 0 105 -15 134 -67h8v261h78v-728h-78v57h-7c-36 -52 -66 -67 -133 -67zM98 263c0 -153 31 -198 134 -198c96 0 124 45 124 198c0 151 -28 196 -124 196c-103 0 -134 -45 -134 -196zM509 571l23 187h65
l-37 -187h-51z" />
    <glyph glyph-name="dcroat" unicode="&#x111;" 
d="M314 591v66h89v71h83v-71h91v-66h-91v-591h-83v57h-7c-38 -52 -70 -67 -140 -67c-161 0 -209 62 -209 273c0 209 47 271 206 271c78 0 111 -15 142 -67h8v124h-89zM132 263c0 -153 33 -198 142 -198c101 0 131 45 131 198c0 151 -30 196 -131 196
c-109 0 -142 -45 -142 -196z" />
    <glyph glyph-name="e" unicode="e" 
d="M307 -10c-172 0 -224 63 -224 274c0 208 50 270 216 270c167 0 216 -68 213 -296h-345c6 -134 37 -174 139 -174c67 0 91 16 109 71h87c-22 -112 -65 -145 -195 -145zM168 311h264c-4 115 -34 149 -133 149c-94 0 -123 -34 -131 -149z" />
    <glyph glyph-name="eacute" unicode="&#xe9;" 
d="M307 -10c-172 0 -224 63 -224 274c0 208 50 270 216 270c167 0 216 -68 213 -296h-345c6 -134 37 -174 139 -174c67 0 91 16 109 71h87c-22 -112 -65 -145 -195 -145zM168 311h264c-4 115 -34 149 -133 149c-94 0 -123 -34 -131 -149zM185 606l138 177h117l-155 -177
h-100z" />
    <glyph glyph-name="ecaron" unicode="&#x11b;" 
d="M307 -10c-172 0 -224 63 -224 274c0 208 50 270 216 270c167 0 216 -68 213 -296h-345c6 -134 37 -174 139 -174c67 0 91 16 109 71h87c-22 -112 -65 -145 -195 -145zM104 783h88l90 -110h17l90 110h88l-148 -181h-77zM168 311h264c-4 115 -34 149 -133 149
c-94 0 -123 -34 -131 -149z" />
    <glyph glyph-name="ecircumflex" unicode="&#xea;" 
d="M307 -10c-172 0 -224 63 -224 274c0 208 50 270 216 270c167 0 216 -68 213 -296h-345c6 -134 37 -174 139 -174c67 0 91 16 109 71h87c-22 -112 -65 -145 -195 -145zM104 602l148 181h77l148 -181h-88l-90 110h-17l-90 -110h-88zM168 311h264c-4 115 -34 149 -133 149
c-94 0 -123 -34 -131 -149z" />
    <glyph glyph-name="edieresis" unicode="&#xeb;" 
d="M307 -10c-172 0 -224 63 -224 274c0 208 50 270 216 270c167 0 216 -68 213 -296h-345c6 -134 37 -174 139 -174c67 0 91 16 109 71h87c-22 -112 -65 -145 -195 -145zM137 633v108h106v-108h-106zM168 311h264c-4 115 -34 149 -133 149c-94 0 -123 -34 -131 -149z
M339 633v108h106v-108h-106z" />
    <glyph glyph-name="edotaccent" unicode="&#x117;" 
d="M307 -10c-172 0 -224 63 -224 274c0 208 50 270 216 270c167 0 216 -68 213 -296h-345c6 -134 37 -174 139 -174c67 0 91 16 109 71h87c-22 -112 -65 -145 -195 -145zM168 311h264c-4 115 -34 149 -133 149c-94 0 -123 -34 -131 -149zM238 633v108h106v-108h-106z" />
    <glyph glyph-name="egrave" unicode="&#xe8;" 
d="M307 -10c-172 0 -224 63 -224 274c0 208 50 270 216 270c167 0 216 -68 213 -296h-345c6 -134 37 -174 139 -174c67 0 91 16 109 71h87c-22 -112 -65 -145 -195 -145zM101 783h117l138 -177h-100zM168 311h264c-4 115 -34 149 -133 149c-94 0 -123 -34 -131 -149z" />
    <glyph glyph-name="emacron" unicode="&#x113;" 
d="M307 -10c-172 0 -224 63 -224 274c0 208 50 270 216 270c167 0 216 -68 213 -296h-345c6 -134 37 -174 139 -174c67 0 91 16 109 71h87c-22 -112 -65 -145 -195 -145zM139 664v66h303v-66h-303zM168 311h264c-4 115 -34 149 -133 149c-94 0 -123 -34 -131 -149z" />
    <glyph glyph-name="eogonek" unicode="&#x119;" 
d="M353 -164c-84 0 -105 22 -93 95c4 25 15 41 44 59c-170 1 -221 64 -221 274c0 208 50 270 216 270c167 0 216 -68 213 -296h-345c6 -134 37 -174 139 -174c67 0 91 16 109 71h87c-15 -78 -41 -117 -98 -134l-17 -8c-45 -20 -59 -34 -63 -59c-6 -36 5 -47 48 -47
c16 0 25 1 39 6v-49c-28 -6 -41 -8 -58 -8zM168 311h264c-4 115 -34 149 -133 149c-94 0 -123 -34 -131 -149z" />
    <glyph glyph-name="uni0259" unicode="&#x259;" 
d="M293 -10c-130 0 -173 33 -195 145h87c18 -55 42 -71 109 -71c102 0 133 40 139 174h-345c-3 228 46 296 213 296c166 0 216 -62 216 -270c0 -211 -52 -274 -224 -274zM168 311h264c-8 115 -37 149 -131 149c-99 0 -129 -34 -133 -149z" />
    <glyph glyph-name="f" unicode="f" 
d="M232 0v443h-130l-24 79h154v72c0 131 59 164 272 154v-74c-150 6 -191 -13 -191 -84v-68h181v-79h-181v-443h-81z" />
    <glyph glyph-name="g" unicode="g" 
d="M293 -215c-152 0 -199 35 -207 153h84c1 -63 30 -82 124 -82c98 0 128 32 129 142v78h-7c-20 -60 -50 -79 -136 -79c-164 0 -213 61 -213 265c0 211 49 273 214 273c82 0 116 -16 137 -78h8v65h79v-535c-1 -156 -50 -202 -212 -202zM151 262c0 -147 31 -191 136 -191
s136 44 136 191c0 154 -31 199 -136 199s-136 -45 -136 -199z" />
    <glyph glyph-name="gbreve" unicode="&#x11f;" 
d="M293 -215c-152 0 -199 35 -207 153h84c1 -63 30 -82 124 -82c98 0 128 32 129 142v78h-7c-20 -60 -50 -79 -136 -79c-164 0 -213 61 -213 265c0 211 49 273 214 273c82 0 116 -16 137 -78h8v65h79v-535c-1 -156 -50 -202 -212 -202zM112 764h73c15 -56 43 -78 98 -78
s83 22 98 78h73c-18 -101 -67 -142 -171 -142c-105 0 -154 41 -171 142zM151 262c0 -147 31 -191 136 -191s136 44 136 191c0 154 -31 199 -136 199s-136 -45 -136 -199z" />
    <glyph glyph-name="uni0123" unicode="&#x123;" 
d="M293 -215c-152 0 -199 35 -207 153h84c1 -63 30 -82 124 -82c98 0 128 32 129 142v78h-7c-20 -60 -50 -79 -136 -79c-164 0 -213 61 -213 265c0 211 49 273 214 273c82 0 116 -16 137 -78h8v65h79v-535c-1 -156 -50 -202 -212 -202zM151 262c0 -147 31 -191 136 -191
s136 44 136 191c0 154 -31 199 -136 199s-136 -45 -136 -199zM207 610l80 187h71l-61 -187h-90z" />
    <glyph glyph-name="gdotaccent" unicode="&#x121;" 
d="M293 -215c-152 0 -199 35 -207 153h84c1 -63 30 -82 124 -82c98 0 128 32 129 142v78h-7c-20 -60 -50 -79 -136 -79c-164 0 -213 61 -213 265c0 211 49 273 214 273c82 0 116 -16 137 -78h8v65h79v-535c-1 -156 -50 -202 -212 -202zM151 262c0 -147 31 -191 136 -191
s136 44 136 191c0 154 -31 199 -136 199s-136 -45 -136 -199zM230 633v108h106v-108h-106z" />
    <glyph glyph-name="h" unicode="h" 
d="M91 0v728h84v-283h7c30 69 65 89 156 89c131 0 170 -45 170 -199v-335h-83v337c0 94 -27 122 -113 122c-105 0 -137 -43 -137 -188v-271h-84z" />
    <glyph glyph-name="hbar" unicode="&#x127;" 
d="M14 595v72h87v61h84v-61h92v-72h-92v-150h7c30 69 65 89 156 89c131 0 170 -45 170 -199v-335h-83v337c0 94 -27 122 -113 122c-105 0 -137 -43 -137 -188v-271h-84v595h-87z" />
    <glyph glyph-name="i" unicode="i" 
d="M250 614v114h115v-114h-115zM113 1v73h169v375h-159v73h241v-448h162v-73h-413z" />
    <glyph glyph-name="dotlessi" unicode="&#x131;" 
d="M115 1v73h169v375h-159v73h241v-448h162v-73h-413z" />
    <glyph glyph-name="iacute" unicode="&#xed;" 
d="M115 1v73h169v375h-159v73h241v-448h162v-73h-413zM199 603l138 177h117l-155 -177h-100z" />
    <glyph glyph-name="icircumflex" unicode="&#xee;" 
d="M115 1v73h169v375h-159v73h241v-448h162v-73h-413zM118 599l148 181h77l148 -181h-88l-90 110h-17l-90 -110h-88z" />
    <glyph glyph-name="idieresis" unicode="&#xef;" 
d="M115 1v73h169v375h-159v73h241v-448h162v-73h-413zM151 630v108h106v-108h-106zM353 630v108h106v-108h-106z" />
    <glyph glyph-name="i.loclTRK" 
d="M115 1v73h169v375h-159v73h241v-448h162v-73h-413zM252 630v108h106v-108h-106z" />
    <glyph glyph-name="igrave" unicode="&#xec;" 
d="M115 1v73h169v375h-159v73h241v-448h162v-73h-413zM115 780h117l138 -177h-100z" />
    <glyph glyph-name="ij" unicode="&#x133;" 
d="M123 -166c193 4 271 30 271 108v580h82v-585c0 -148 -82 -177 -353 -177v74zM104 614v114h115v-114h-115zM123 1v521h82v-521h-82zM374 614v114h115v-114h-115z" />
    <glyph glyph-name="imacron" unicode="&#x12b;" 
d="M115 1v73h169v375h-159v73h241v-448h162v-73h-413zM153 661v66h303v-66h-303z" />
    <glyph glyph-name="iogonek" unicode="&#x12f;" 
d="M316 -174c-84 0 -105 22 -93 95c5 33 23 51 81 79h84l-38 -17c-45 -20 -59 -34 -63 -59c-6 -36 5 -47 48 -47c16 0 25 1 39 6v-49c-28 -6 -41 -8 -58 -8zM115 1v73h169v375h-159v73h241v-448h162v-73h-413zM252 630v108h106v-108h-106z" />
    <glyph glyph-name="j" unicode="j" 
d="M281 614v114h115v-114h-115zM126 -220v74c150 24 183 43 183 108v486h-150v74h232v-565c0 -127 -47 -157 -265 -177z" />
    <glyph glyph-name="uni0237" unicode="&#x237;" 
d="M128 -146c150 24 183 43 183 108v486h-150v74h232v-565c0 -127 -47 -157 -265 -177v74z" />
    <glyph glyph-name="k" unicode="k" 
d="M450 0l-244 279v-279h-82v728h82v-434l215 228h108l-223 -233l256 -289h-112z" />
    <glyph glyph-name="uni0137" unicode="&#x137;" 
d="M222 -260l61 187h90l-80 -187h-71zM124 0v728h82v-434l215 228h108l-223 -233l256 -289h-112l-244 279v-279h-82z" />
    <glyph glyph-name="l" unicode="l" 
d="M90 0v74h178v579h-168v75h249v-654h166v-74h-425z" />
    <glyph glyph-name="lacute" unicode="&#x13a;" 
d="M90 0v74h178v579h-168v75h249v-654h166v-74h-425zM185 830l138 177h117l-155 -177h-100z" />
    <glyph glyph-name="lcaron" unicode="&#x13e;" 
d="M90 0v74h178v579h-168v75h249v-654h166v-74h-425zM413 598l31 187h88l-50 -187h-69z" />
    <glyph glyph-name="uni013C" unicode="&#x13c;" 
d="M200 -260l61 187h90l-80 -187h-71zM90 0v74h178v579h-168v75h249v-654h166v-74h-425z" />
    <glyph glyph-name="lslash" unicode="&#x142;" 
d="M129 282v80l137 70v221h-168v75h249v-255l135 69v-80l-135 -69v-319h166v-74h-425v74h178v278z" />
    <glyph glyph-name="m" unicode="m" 
d="M46 0v522h75v-67h7c23 61 47 79 98 79c59 0 89 -20 104 -79h5c24 63 51 79 105 79c87 0 113 -47 113 -196v-338h-79v319c0 105 -14 139 -66 139c-53 0 -69 -35 -69 -154v-304h-78l2 318c1 108 -21 140 -70 140c-53 0 -69 -38 -69 -160v-298h-78z" />
    <glyph glyph-name="n" unicode="n" 
d="M91 0v522h84v-76h7c30 69 66 89 157 89c130 0 169 -45 169 -199v-336h-83v338c0 93 -27 120 -112 120c-106 0 -138 -43 -138 -186v-272h-84z" />
    <glyph glyph-name="nacute" unicode="&#x144;" 
d="M91 0v522h84v-76h7c30 69 66 89 157 89c130 0 169 -45 169 -199v-336h-83v338c0 93 -27 120 -112 120c-106 0 -138 -43 -138 -186v-272h-84zM185 606l138 177h117l-155 -177h-100z" />
    <glyph glyph-name="ncaron" unicode="&#x148;" 
d="M91 0v522h84v-76h7c30 69 66 89 157 89c130 0 169 -45 169 -199v-336h-83v338c0 93 -27 120 -112 120c-106 0 -138 -43 -138 -186v-272h-84zM104 783h88l90 -110h17l90 110h88l-148 -181h-77z" />
    <glyph glyph-name="uni0146" unicode="&#x146;" 
d="M222 -260l61 187h90l-80 -187h-71zM91 0v522h84v-76h7c30 69 66 89 157 89c130 0 169 -45 169 -199v-336h-83v338c0 93 -27 120 -112 120c-106 0 -138 -43 -138 -186v-272h-84z" />
    <glyph glyph-name="ntilde" unicode="&#xf1;" 
d="M91 0v522h84v-76h7c30 69 66 89 157 89c130 0 169 -45 169 -199v-336h-83v338c0 93 -27 120 -112 120c-106 0 -138 -43 -138 -186v-272h-84zM102 628c0 119 11 134 100 134c43 0 60 -6 109 -56c43 -43 52 -50 71 -50c30 0 32 7 32 79h65c0 -121 -11 -137 -101 -137
c-42 0 -56 5 -105 55c-42 42 -54 50 -74 50c-29 0 -31 -6 -31 -75h-66z" />
    <glyph glyph-name="o" unicode="o" 
d="M299 -10c-172 0 -223 62 -223 272c0 211 51 273 223 273c173 0 224 -63 224 -273c0 -209 -51 -272 -224 -272zM160 262c0 -152 32 -197 139 -197c108 0 140 45 140 197c0 154 -32 199 -140 199c-107 0 -139 -45 -139 -199z" />
    <glyph glyph-name="oacute" unicode="&#xf3;" 
d="M299 -10c-172 0 -223 62 -223 272c0 211 51 273 223 273c173 0 224 -63 224 -273c0 -209 -51 -272 -224 -272zM160 262c0 -152 32 -197 139 -197c108 0 140 45 140 197c0 154 -32 199 -140 199c-107 0 -139 -45 -139 -199zM185 606l138 177h117l-155 -177h-100z" />
    <glyph glyph-name="ocircumflex" unicode="&#xf4;" 
d="M299 -10c-172 0 -223 62 -223 272c0 211 51 273 223 273c173 0 224 -63 224 -273c0 -209 -51 -272 -224 -272zM104 602l148 181h77l148 -181h-88l-90 110h-17l-90 -110h-88zM160 262c0 -152 32 -197 139 -197c108 0 140 45 140 197c0 154 -32 199 -140 199
c-107 0 -139 -45 -139 -199z" />
    <glyph glyph-name="odieresis" unicode="&#xf6;" 
d="M299 -10c-172 0 -223 62 -223 272c0 211 51 273 223 273c173 0 224 -63 224 -273c0 -209 -51 -272 -224 -272zM137 633v108h106v-108h-106zM160 262c0 -152 32 -197 139 -197c108 0 140 45 140 197c0 154 -32 199 -140 199c-107 0 -139 -45 -139 -199zM339 633v108h106
v-108h-106z" />
    <glyph glyph-name="ograve" unicode="&#xf2;" 
d="M299 -10c-172 0 -223 62 -223 272c0 211 51 273 223 273c173 0 224 -63 224 -273c0 -209 -51 -272 -224 -272zM101 783h117l138 -177h-100zM160 262c0 -152 32 -197 139 -197c108 0 140 45 140 197c0 154 -32 199 -140 199c-107 0 -139 -45 -139 -199z" />
    <glyph glyph-name="ohungarumlaut" unicode="&#x151;" 
d="M299 -10c-172 0 -223 62 -223 272c0 211 51 273 223 273c173 0 224 -63 224 -273c0 -209 -51 -272 -224 -272zM125 606l138 177h117l-155 -177h-100zM160 262c0 -152 32 -197 139 -197c108 0 140 45 140 197c0 154 -32 199 -140 199c-107 0 -139 -45 -139 -199zM345 607
l138 177h117l-155 -177h-100z" />
    <glyph glyph-name="omacron" unicode="&#x14d;" 
d="M299 -10c-172 0 -223 62 -223 272c0 211 51 273 223 273c173 0 224 -63 224 -273c0 -209 -51 -272 -224 -272zM139 664v66h303v-66h-303zM160 262c0 -152 32 -197 139 -197c108 0 140 45 140 197c0 154 -32 199 -140 199c-107 0 -139 -45 -139 -199z" />
    <glyph glyph-name="oslash" unicode="&#xf8;" 
d="M122 -6l-58 49l35 41c-18 42 -25 100 -25 178c0 211 51 273 223 273c68 0 117 -10 152 -34l29 34l57 -48l-39 -47c18 -41 25 -99 25 -178c0 -209 -51 -272 -224 -272c-67 0 -116 9 -150 33zM158 262c0 -40 2 -72 7 -99l229 272c-22 19 -53 26 -97 26
c-107 0 -139 -45 -139 -199zM202 90c22 -18 53 -25 95 -25c108 0 140 45 140 197c0 40 -2 73 -7 99z" />
    <glyph glyph-name="otilde" unicode="&#xf5;" 
d="M299 -10c-172 0 -223 62 -223 272c0 211 51 273 223 273c173 0 224 -63 224 -273c0 -209 -51 -272 -224 -272zM102 628c0 119 11 134 100 134c43 0 60 -6 109 -56c43 -43 52 -50 71 -50c30 0 32 7 32 79h65c0 -121 -11 -137 -101 -137c-42 0 -56 5 -105 55
c-42 42 -54 50 -74 50c-29 0 -31 -6 -31 -75h-66zM160 262c0 -152 32 -197 139 -197c108 0 140 45 140 197c0 154 -32 199 -140 199c-107 0 -139 -45 -139 -199z" />
    <glyph glyph-name="oe" unicode="&#x153;" 
d="M174 -10c-121 0 -157 62 -157 272c0 211 36 273 158 273c69 0 99 -21 130 -94h9c28 73 56 94 120 94c116 0 149 -68 147 -299h-233c3 -133 22 -172 82 -172c41 0 55 16 62 70h79c-19 -111 -49 -144 -131 -144c-67 0 -96 22 -126 95h-9c-30 -73 -60 -95 -131 -95zM93 262
c0 -152 20 -197 88 -197c70 0 91 45 91 197c0 154 -21 199 -91 199c-68 0 -88 -45 -88 -199zM350 309h161c-3 117 -21 152 -77 152c-57 0 -77 -35 -84 -152z" />
    <glyph glyph-name="p" unicode="p" 
d="M91 -215v737h83v-54h7c39 52 70 67 140 67c161 0 209 -62 209 -273c0 -210 -47 -272 -207 -272c-78 0 -109 15 -141 67h-8v-272h-83zM172 262c0 -152 30 -197 131 -197c109 0 142 45 142 197c0 153 -33 198 -142 198c-101 0 -131 -45 -131 -198z" />
    <glyph glyph-name="thorn" unicode="&#xfe;" 
d="M89 728h83v-260h7c39 52 70 67 140 67c161 0 209 -62 209 -273c0 -210 -47 -272 -207 -272c-78 0 -109 15 -141 67h-8v-272h-83v943zM170 262c0 -152 30 -197 131 -197c109 0 142 45 142 197c0 153 -33 198 -142 198c-101 0 -131 -45 -131 -198z" />
    <glyph glyph-name="q" unicode="q" 
d="M424 -215v272h-8c-32 -52 -65 -67 -142 -67c-159 0 -206 62 -206 272c0 211 48 273 209 273c69 0 101 -15 140 -67h7v54h83v-737h-83zM153 262c0 -152 33 -197 142 -197c101 0 131 45 131 197c0 153 -30 198 -131 198c-109 0 -142 -45 -142 -198z" />
    <glyph glyph-name="r" unicode="r" 
d="M147 0v522h80l-3 -123h8c54 125 65 125 145 126c66 1 103 1 129 -1v-79c-55 2 -124 2 -150 -2c-57 -10 -128 -92 -128 -179v-264h-81z" />
    <glyph glyph-name="racute" unicode="&#x155;" 
d="M147 0v522h80l-3 -123h8c54 125 65 125 145 126c66 1 103 1 129 -1v-79c-55 2 -124 2 -150 -2c-57 -10 -128 -92 -128 -179v-264h-81zM182 606l138 177h117l-155 -177h-100z" />
    <glyph glyph-name="rcaron" unicode="&#x159;" 
d="M147 0v522h80l-3 -123h8c54 125 65 125 145 126c66 1 103 1 129 -1v-79c-55 2 -124 2 -150 -2c-57 -10 -128 -92 -128 -179v-264h-81zM101 783h88l90 -110h17l90 110h88l-148 -181h-77z" />
    <glyph glyph-name="uni0157" unicode="&#x157;" 
d="M114 -260l61 187h90l-80 -187h-71zM147 0v522h80l-3 -123h8c54 125 65 125 145 126c66 1 103 1 129 -1v-79c-55 2 -124 2 -150 -2c-57 -10 -128 -92 -128 -179v-264h-81z" />
    <glyph glyph-name="s" unicode="s" 
d="M301 -10c-165 0 -214 36 -214 158h85c4 -64 34 -83 129 -84c96 -1 125 16 125 76c0 53 -34 75 -151 99c-139 28 -181 63 -181 149c0 113 47 147 205 147c148 0 193 -31 199 -137h-83c-7 49 -35 63 -117 63c-94 0 -122 -17 -122 -74c0 -34 36 -53 160 -84
c137 -34 173 -72 173 -161c0 -117 -48 -152 -208 -152z" />
    <glyph glyph-name="sacute" unicode="&#x15b;" 
d="M301 -10c-165 0 -214 36 -214 158h85c4 -64 34 -83 129 -84c96 -1 125 16 125 76c0 53 -34 75 -151 99c-139 28 -181 63 -181 149c0 113 47 147 205 147c148 0 193 -31 199 -137h-83c-7 49 -35 63 -117 63c-94 0 -122 -17 -122 -74c0 -34 36 -53 160 -84
c137 -34 173 -72 173 -161c0 -117 -48 -152 -208 -152zM197 606l138 177h117l-155 -177h-100z" />
    <glyph glyph-name="scaron" unicode="&#x161;" 
d="M301 -10c-165 0 -214 36 -214 158h85c4 -64 34 -83 129 -84c96 -1 125 16 125 76c0 53 -34 75 -151 99c-139 28 -181 63 -181 149c0 113 47 147 205 147c148 0 193 -31 199 -137h-83c-7 49 -35 63 -117 63c-94 0 -122 -17 -122 -74c0 -34 36 -53 160 -84
c137 -34 173 -72 173 -161c0 -117 -48 -152 -208 -152zM116 783h88l90 -110h17l90 110h88l-148 -181h-77z" />
    <glyph glyph-name="scedilla" unicode="&#x15f;" 
d="M283 -233c-25 0 -39 2 -62 8v49c15 -4 28 -6 56 -6c44 0 58 9 58 37c0 27 -17 34 -72 34h-36v43l34 59c-133 6 -174 46 -174 157h85c4 -64 34 -83 129 -84c96 -1 125 16 125 76c0 53 -34 75 -151 99c-139 28 -181 63 -181 149c0 113 47 147 205 147
c148 0 193 -31 199 -137h-83c-7 49 -35 63 -117 63c-94 0 -122 -17 -122 -74c0 -34 36 -53 160 -84c137 -34 173 -72 173 -161c0 -110 -43 -148 -181 -152l-48 -54c97 -1 118 -18 118 -79c0 -70 -26 -90 -115 -90z" />
    <glyph glyph-name="uni0219" unicode="&#x219;" 
d="M234 -260l61 187h90l-80 -187h-71zM87 148h85c4 -64 34 -83 129 -84c96 -1 125 16 125 76c0 53 -34 75 -151 99c-139 28 -181 63 -181 149c0 113 47 147 205 147c148 0 193 -31 199 -137h-83c-7 49 -35 63 -117 63c-94 0 -122 -17 -122 -74c0 -34 36 -53 160 -84
c137 -34 173 -72 173 -161c0 -117 -48 -152 -208 -152c-165 0 -214 36 -214 158z" />
    <glyph glyph-name="germandbls" unicode="&#xdf;" 
d="M94 491c-5 147 42 191 209 191c154 0 199 -40 199 -176c0 -97 -27 -131 -120 -146v-6c115 -25 149 -65 149 -175c0 -167 -66 -207 -288 -177v76c157 -31 204 -7 204 107c0 99 -42 128 -184 128v76c121 4 157 30 157 111c0 83 -27 108 -117 108c-97 0 -126 -27 -126 -117
v-491h-83v491z" />
    <glyph glyph-name="t" unicode="t" 
d="M362 -11c-130 0 -150 49 -150 168v291h-135l20 74h119v117l78 33v-150h183v-74h-183v-287c0 -63 13 -96 101 -96c27 0 60 3 104 9v-74c-56 -7 -102 -11 -137 -11z" />
    <glyph glyph-name="tcaron" unicode="&#x165;" 
d="M362 -11c-130 0 -150 49 -150 168v291h-135l20 74h119v117l78 33v-150h183v-74h-183v-287c0 -63 13 -96 101 -96c27 0 60 3 104 9v-74c-56 -7 -102 -11 -137 -11zM351 598l31 187h88l-50 -187h-69z" />
    <glyph glyph-name="uni0163" unicode="&#x163;" 
d="M353 -233c-25 0 -39 2 -62 8v49c15 -4 28 -6 56 -6c44 0 58 9 58 37c0 27 -17 34 -72 34h-36v43l33 58c-101 8 -118 58 -118 167v291h-135l20 74h119v117l78 33v-150h183v-74h-183v-287c0 -63 13 -96 101 -96c27 0 60 3 104 9v-74c-39 -5 -73 -8 -102 -10l-47 -54
c97 -1 118 -18 118 -79c0 -70 -26 -90 -115 -90z" />
    <glyph glyph-name="uni021B" unicode="&#x21b;" 
d="M304 -260l61 187h90l-80 -187h-71zM77 448l20 74h119v117l78 33v-150h183v-74h-183v-287c0 -63 13 -96 101 -96c27 0 60 3 104 9v-74c-56 -7 -102 -11 -137 -11c-130 0 -150 49 -150 168v291h-135z" />
    <glyph glyph-name="u" unicode="u" 
d="M251 -10c-125 0 -162 45 -162 198v334h84v-336c0 -93 24 -121 103 -121c113 0 147 43 147 187v270h83v-522h-83v78h-7c-30 -67 -68 -88 -165 -88z" />
    <glyph glyph-name="uacute" unicode="&#xfa;" 
d="M251 -10c-125 0 -162 45 -162 198v334h84v-336c0 -93 24 -121 103 -121c113 0 147 43 147 187v270h83v-522h-83v78h-7c-30 -67 -68 -88 -165 -88zM185 603l138 177h117l-155 -177h-100z" />
    <glyph glyph-name="ucircumflex" unicode="&#xfb;" 
d="M251 -10c-125 0 -162 45 -162 198v334h84v-336c0 -93 24 -121 103 -121c113 0 147 43 147 187v270h83v-522h-83v78h-7c-30 -67 -68 -88 -165 -88zM104 599l148 181h77l148 -181h-88l-90 110h-17l-90 -110h-88z" />
    <glyph glyph-name="udieresis" unicode="&#xfc;" 
d="M251 -10c-125 0 -162 45 -162 198v334h84v-336c0 -93 24 -121 103 -121c113 0 147 43 147 187v270h83v-522h-83v78h-7c-30 -67 -68 -88 -165 -88zM137 630v108h106v-108h-106zM339 630v108h106v-108h-106z" />
    <glyph glyph-name="ugrave" unicode="&#xf9;" 
d="M251 -10c-125 0 -162 45 -162 198v334h84v-336c0 -93 24 -121 103 -121c113 0 147 43 147 187v270h83v-522h-83v78h-7c-30 -67 -68 -88 -165 -88zM101 780h117l138 -177h-100z" />
    <glyph glyph-name="uhungarumlaut" unicode="&#x171;" 
d="M251 -10c-125 0 -162 45 -162 198v334h84v-336c0 -93 24 -121 103 -121c113 0 147 43 147 187v270h83v-522h-83v78h-7c-30 -67 -68 -88 -165 -88zM125 603l138 177h117l-155 -177h-100zM345 604l138 177h117l-155 -177h-100z" />
    <glyph glyph-name="umacron" unicode="&#x16b;" 
d="M251 -10c-125 0 -162 45 -162 198v334h84v-336c0 -93 24 -121 103 -121c113 0 147 43 147 187v270h83v-522h-83v78h-7c-30 -67 -68 -88 -165 -88zM139 661v66h303v-66h-303z" />
    <glyph glyph-name="uogonek" unicode="&#x173;" 
d="M446 -174c-84 0 -105 22 -93 95c5 33 23 51 81 79h-11v78h-7c-30 -67 -68 -88 -165 -88c-125 0 -162 45 -162 198v334h84v-336c0 -93 24 -121 103 -121c113 0 147 43 147 187v270h83v-522h12l-38 -17c-45 -20 -59 -34 -63 -59c-6 -36 5 -47 48 -47c16 0 25 1 39 6v-49
c-28 -6 -41 -8 -58 -8z" />
    <glyph glyph-name="uring" unicode="&#x16f;" 
d="M251 -10c-125 0 -162 45 -162 198v334h84v-336c0 -93 24 -121 103 -121c113 0 147 43 147 187v270h83v-522h-83v78h-7c-30 -67 -68 -88 -165 -88zM191 690c0 71 28 100 98 100c72 0 101 -29 101 -100c0 -70 -29 -98 -101 -98c-70 0 -98 28 -98 98zM246 690
c0 -36 11 -49 43 -49c34 0 46 13 46 49c0 39 -12 53 -46 53c-32 0 -43 -14 -43 -53z" />
    <glyph glyph-name="v" unicode="v" 
d="M255 0l-197 522h88l150 -425h7l150 425h88l-197 -522h-89z" />
    <glyph glyph-name="w" unicode="w" 
d="M478 0h-91l-84 429h-5l-85 -429h-91l-112 523h88l67 -423h9l83 422h87l82 -422h9l67 423h88z" />
    <glyph glyph-name="wacute" unicode="&#x1e83;" 
d="M478 0h-91l-84 429h-5l-85 -429h-91l-112 523h88l67 -423h9l83 422h87l82 -422h9l67 423h88zM185 603l138 177h117l-155 -177h-100z" />
    <glyph glyph-name="wcircumflex" unicode="&#x175;" 
d="M478 0h-91l-84 429h-5l-85 -429h-91l-112 523h88l67 -423h9l83 422h87l82 -422h9l67 423h88zM104 599l148 181h77l148 -181h-88l-90 110h-17l-90 -110h-88z" />
    <glyph glyph-name="wdieresis" unicode="&#x1e85;" 
d="M478 0h-91l-84 429h-5l-85 -429h-91l-112 523h88l67 -423h9l83 422h87l82 -422h9l67 423h88zM137 630v108h106v-108h-106zM339 630v108h106v-108h-106z" />
    <glyph glyph-name="wgrave" unicode="&#x1e81;" 
d="M478 0h-91l-84 429h-5l-85 -429h-91l-112 523h88l67 -423h9l83 422h87l82 -422h9l67 423h88zM101 780h117l138 -177h-100z" />
    <glyph glyph-name="x" unicode="x" 
d="M68 0l178 264l-169 258h97l125 -204h2l125 204h97l-170 -258l179 -264h-99l-133 206h-1l-132 -206h-99z" />
    <glyph glyph-name="y" unicode="y" 
d="M170 -221l84 221l-191 522h84l150 -420h2l153 420h85l-281 -743h-86z" />
    <glyph glyph-name="yacute" unicode="&#xfd;" 
d="M170 -221l84 221l-191 522h84l150 -420h2l153 420h85l-281 -743h-86zM185 603l138 177h117l-155 -177h-100z" />
    <glyph glyph-name="ycircumflex" unicode="&#x177;" 
d="M170 -221l84 221l-191 522h84l150 -420h2l153 420h85l-281 -743h-86zM104 599l148 181h77l148 -181h-88l-90 110h-17l-90 -110h-88z" />
    <glyph glyph-name="ydieresis" unicode="&#xff;" 
d="M170 -221l84 221l-191 522h84l150 -420h2l153 420h85l-281 -743h-86zM137 630v108h106v-108h-106zM339 630v108h106v-108h-106z" />
    <glyph glyph-name="ygrave" unicode="&#x1ef3;" 
d="M170 -221l84 221l-191 522h84l150 -420h2l153 420h85l-281 -743h-86zM101 780h117l138 -177h-100z" />
    <glyph glyph-name="z" unicode="z" 
d="M98 0v73l306 376h-289v73h384v-69l-306 -379l306 1v-75h-401z" />
    <glyph glyph-name="zacute" unicode="&#x17a;" 
d="M98 0v73l306 376h-289v73h384v-69l-306 -379l306 1v-75h-401zM185 603l138 177h117l-155 -177h-100z" />
    <glyph glyph-name="zcaron" unicode="&#x17e;" 
d="M98 0v73l306 376h-289v73h384v-69l-306 -379l306 1v-75h-401zM104 780h88l90 -110h17l90 110h88l-148 -181h-77z" />
    <glyph glyph-name="zdotaccent" unicode="&#x17c;" 
d="M98 0v73l306 376h-289v73h384v-69l-306 -379l306 1v-75h-401zM238 630v108h106v-108h-106z" />
    <glyph glyph-name="ordfeminine" unicode="&#xaa;" 
d="M249 -10c-125 0 -162 35 -162 155c0 142 53 184 232 184h94v25c0 83 -27 108 -119 108c-81 0 -105 -17 -107 -75h-84c0 114 44 148 191 148c153 0 198 -41 198 -181v-354h-76v67h-7c-34 -59 -71 -77 -160 -77zM171 154c0 -69 23 -89 99 -89c109 0 142 44 142 193l-113 -1
c-99 -1 -128 -25 -128 -103z" />
    <glyph glyph-name="ordmasculine" unicode="&#xba;" 
d="M299 -10c-172 0 -223 62 -223 272c0 211 51 273 223 273c173 0 224 -63 224 -273c0 -209 -51 -272 -224 -272zM160 262c0 -152 32 -197 139 -197c108 0 140 45 140 197c0 154 -32 199 -140 199c-107 0 -139 -45 -139 -199z" />
    <glyph glyph-name="zero" unicode="0" 
d="M298 261c-35 0 -41 4 -45 24c-4 17 -5 28 -5 51c0 33 2 36 5 50c5 22 9 25 45 25c35 0 41 -4 45 -24c4 -17 5 -28 5 -51c0 -33 -2 -36 -5 -50c-5 -22 -9 -25 -45 -25zM71 336c0 105 10 158 20 200c31 131 65 150 209 150s178 -19 209 -150c10 -42 20 -95 20 -200
s-9 -158 -19 -200c-31 -131 -66 -150 -210 -150s-179 19 -210 150c-10 42 -19 95 -19 200zM156 336c0 -99 10 -145 15 -174c13 -73 32 -102 129 -102s116 29 129 102c5 29 15 75 15 174s-10 145 -15 174c-13 73 -32 102 -129 102s-116 -29 -129 -102
c-5 -29 -15 -75 -15 -174z" />
    <glyph glyph-name="one" unicode="1" 
d="M321 0v488l6 102h-6l-68 -57l-147 -93v94l203 146h96v-680h-84z" />
    <glyph glyph-name="two" unicode="2" 
d="M87 126c172 146 240 209 296 279c29 35 38 57 38 96c0 87 -29 113 -127 113c-94 0 -124 -22 -132 -96h-89c11 133 61 172 220 172c164 0 213 -44 213 -191c0 -62 -15 -96 -67 -152c-96 -102 -156 -160 -263 -253v-14h339v-80h-428v126z" />
    <glyph glyph-name="three" unicode="3" 
d="M249 -9c-71 0 -115 9 -174 34v87c69 -33 113 -45 170 -45c122 0 164 38 164 148c0 111 -57 140 -222 115v94l190 179v3h-288v74h378v-95l-186 -176l2 -4c156 13 210 -37 210 -193c0 -164 -63 -221 -244 -221z" />
    <glyph glyph-name="four" unicode="4" 
d="M80 128v98l226 464h91l-231 -464v-22h188v166h80v-166h96v-76h-96v-128h-80v128h-274z" />
    <glyph glyph-name="five" unicode="5" 
d="M256 -7c-70 0 -114 9 -172 34v89c73 -35 117 -47 179 -47c115 0 158 40 158 151c0 91 -29 124 -112 135c-46 6 -99 4 -206 -10l27 335h346v-74l-273 -2l-13 -176c35 10 69 12 120 7c144 -15 195 -68 195 -215c0 -167 -66 -227 -249 -227z" />
    <glyph glyph-name="six" unicode="6" 
d="M301 -10c-184 0 -222 38 -222 223c0 178 13 265 248 477h117c-231 -204 -260 -256 -279 -322l5 -4c15 40 74 58 152 58c165 0 199 -36 199 -212c0 -182 -38 -220 -220 -220zM162 213c-2 -126 22 -152 139 -152c114 0 138 25 138 148c0 116 -24 140 -138 140
c-113 0 -137 -23 -139 -136z" />
    <glyph glyph-name="seven" unicode="7" 
d="M109 -10l305 608h-345v82h426v-104l-290 -586h-96z" />
    <glyph glyph-name="eight" unicode="8" 
d="M299 -10c-185 0 -223 33 -223 191c0 94 22 125 127 183v6c-91 49 -110 76 -110 157c0 135 35 163 206 163c172 0 207 -28 207 -163c0 -81 -19 -108 -110 -157v-6c106 -59 128 -90 128 -183c0 -158 -39 -191 -225 -191zM159 177c0 -94 24 -113 140 -113
c118 0 142 19 142 111c0 89 -24 116 -142 159c-116 -42 -140 -69 -140 -157zM176 527c0 -75 21 -97 123 -126c103 30 124 51 124 125c0 75 -21 91 -124 91c-102 0 -123 -15 -123 -90z" />
    <glyph glyph-name="nine" unicode="9" 
d="M163 -10c116 116 158 168 246 302l-5 4c-31 -39 -53 -47 -124 -47c-172 0 -207 37 -207 217c0 186 38 224 220 224c184 0 222 -39 222 -228c0 -172 -41 -253 -241 -472h-111zM155 465c0 -120 23 -145 136 -145c116 0 140 24 142 142c2 130 -22 157 -140 157
c-114 0 -138 -26 -138 -154z" />
    <glyph glyph-name="zero.ss01" 
d="M300 -10c-144 0 -179 19 -210 150c-10 42 -19 95 -19 200s10 158 20 200c31 131 65 150 209 150s178 -19 209 -150c10 -42 20 -95 20 -200s-9 -158 -19 -200c-31 -131 -66 -150 -210 -150zM156 340c0 -99 10 -145 15 -174c13 -73 32 -102 129 -102s116 29 129 102
c5 29 15 75 15 174s-10 145 -15 174c-13 73 -32 102 -129 102s-116 -29 -129 -102c-5 -29 -15 -75 -15 -174z" />
    <glyph glyph-name="zero.ss02" 
d="M300 -10c-144 0 -179 19 -210 150c-10 42 -19 95 -19 200s10 158 20 200c31 131 65 150 209 150s178 -19 209 -150c10 -42 20 -95 20 -200s-9 -158 -19 -200c-31 -131 -66 -150 -210 -150zM156 340c0 -99 10 -145 15 -174c13 -73 32 -102 129 -102s116 29 129 102
c5 29 15 75 15 174s-10 145 -15 174c-13 73 -32 102 -129 102s-116 -29 -129 -102c-5 -29 -15 -75 -15 -174z" />
    <glyph glyph-name="zero.ss03" 
d="M300 -10c-144 0 -179 19 -210 150c-10 42 -19 95 -19 200s10 158 20 200c31 131 65 150 209 150s178 -19 209 -150c10 -42 20 -95 20 -200s-9 -158 -19 -200c-31 -131 -66 -150 -210 -150zM156 340c0 -60 4 -101 8 -130l257 341c-15 46 -42 65 -121 65
c-97 0 -116 -29 -129 -102c-5 -29 -15 -75 -15 -174zM181 125c15 -43 43 -61 119 -61c97 0 116 29 129 102c5 29 15 75 15 174c0 57 -3 96 -7 125z" />
    <glyph glyph-name="zero.ss04" 
d="M88 147c-9 45 -18 90 -18 190c0 105 10 158 20 199c31 129 67 152 211 152c117 0 161 -13 190 -88l-62 -81c-12 66 -30 95 -131 95c-95 0 -115 -31 -128 -105c-5 -28 -15 -73 -15 -174c0 -43 2 -73 4 -95zM114 64l60 79c13 -54 38 -79 127 -79c97 0 117 31 130 106
c5 28 15 71 15 171c0 32 -1 57 -3 77l73 97c8 -39 15 -91 15 -180c0 -82 -6 -140 -19 -193c-32 -133 -71 -152 -209 -152c-107 0 -159 12 -189 74z" />
    <glyph glyph-name="seven.ss05" 
d="M194 1l128 332h-165v73h193l74 192h-330v82h406v-100l-66 -174h106v-73h-134l-126 -332h-86z" />
    <glyph glyph-name="uni00A0" unicode="&#xa0;" 
 />
    <glyph glyph-name="period" unicode="." 
d="M158 0v153h152v-153h-152z" />
    <glyph glyph-name="comma" unicode="," 
d="M194 37c2 6 3 15 3 20v78h120v-74c0 -4 -2 -17 -7 -27l-102 -210h-82z" />
    <glyph glyph-name="colon" unicode=":" 
d="M227 0v153h152v-153h-152zM227 403v153h152v-153h-152z" />
    <glyph glyph-name="semicolon" unicode=";" 
d="M193 37c2 6 3 15 3 20v78h120v-74c0 -4 -2 -17 -7 -27l-102 -210h-82zM182 403v153h152v-153h-152z" />
    <glyph glyph-name="ellipsis" unicode="&#x2026;" 
d="M38 0v122h122v-122h-122zM258 0v122h122v-122h-122zM478 0v122h122v-122h-122z" />
    <glyph glyph-name="exclam" unicode="!" 
d="M200 243l-14 210v263h84v-263l-14 -210h-56zM161 0v138h137v-138h-137z" />
    <glyph glyph-name="exclamdown" unicode="&#xa1;" 
d="M203 477h56l14 -210v-263h-84v263zM164 582v138h137v-138h-137z" />
    <glyph glyph-name="question" unicode="?" 
d="M232 260c0 163 196 82 196 236c0 101 -22 122 -130 122c-101 0 -122 -16 -122 -91h-84c1 134 36 162 206 162c176 0 212 -33 212 -193c0 -192 -198 -147 -198 -236v-54h-80v54zM205 0v138h137v-138h-137z" />
    <glyph glyph-name="questiondown" unicode="&#xbf;" 
d="M371 429c0 -163 -196 -82 -196 -236c0 -101 22 -122 130 -122c101 0 122 16 122 91h84c-1 -134 -36 -162 -206 -162c-176 0 -212 33 -212 193c0 192 198 147 198 236v54h80v-54zM261 551v138h137v-138h-137z" />
    <glyph glyph-name="periodcentered" unicode="&#xb7;" 
d="M223 237v153h152v-153h-152z" />
    <glyph glyph-name="bullet" unicode="&#x2022;" 
d="M270 172c-73 0 -132 59 -132 132s59 132 132 132s132 -59 132 -132s-59 -132 -132 -132z" />
    <glyph glyph-name="asterisk" unicode="*" 
d="M394 152l-45 60l-46 97h-8l-46 -98l-42 -58l-72 52l42 58l82 74l-2 6l-108 15l-69 23l26 80l70 -20l95 -55l5 6l-22 107v73h89v-73l-21 -107l6 -4l95 53l71 22l27 -84l-71 -22l-109 -14l-1 -6l79 -72l45 -61z" />
    <glyph glyph-name="numbersign" unicode="#" 
d="M82 0l39 183h-106l15 72h106l37 171h-106l15 71h106l39 183h73l-39 -183h141l39 183h75l-39 -183h111l-15 -71h-111l-37 -171h111l-15 -72h-111l-39 -183h-75l39 183h-141l-39 -183h-73zM204 251h149l39 179h-149z" />
    <glyph glyph-name="slash" unicode="/" 
d="M83 -114l348 882h85l-349 -882h-84z" />
    <glyph glyph-name="backslash" unicode="\" 
d="M500 -114h-86l-390 882h87z" />
    <glyph glyph-name="hyphen" unicode="-" 
d="M129 258v80h342v-80h-342z" />
    <glyph glyph-name="endash" unicode="&#x2013;" 
d="M80 259v78h440v-78h-440z" />
    <glyph glyph-name="emdash" unicode="&#x2014;" 
d="M0 260v76h600v-76h-600z" />
    <glyph glyph-name="uni2010" unicode="&#x2010;" 
d="M129 258v80h342v-80h-342z" />
    <glyph glyph-name="underscore" unicode="_" 
d="M60 -170v82h480v-82h-480z" />
    <glyph glyph-name="underscoredbl" unicode="&#x2017;" 
d="M58 -215v72h480v-72h-480zM58 -72v72h480v-72h-480z" />
    <glyph glyph-name="parenleft" unicode="(" 
d="M474 -114c-155 10 -203 89 -235 223c-13 55 -23 133 -23 218s10 163 23 218c33 136 80 213 235 223l-1 -86c-104 -10 -142 -87 -156 -161c-4 -22 -18 -94 -18 -194s14 -172 18 -194c15 -76 52 -151 156 -161z" />
    <glyph glyph-name="parenright" unicode=")" 
d="M127 -28c104 10 141 85 156 161c4 22 18 94 18 194s-14 172 -18 194c-14 74 -52 151 -156 161l-1 86c155 -10 202 -87 235 -223c13 -55 23 -133 23 -218s-10 -163 -23 -218c-32 -134 -80 -213 -235 -223z" />
    <glyph glyph-name="braceleft" unicode="{" 
d="M480 -114c-252 0 -251 11 -203 260c18 93 19 100 -114 127v108c133 25 132 32 114 127c-48 249 -49 260 203 260v-78c-172 0 -162 0 -133 -141c37 -181 16 -192 -105 -211v-22c121 -19 142 -30 105 -211c-29 -141 -39 -141 133 -141v-78z" />
    <glyph glyph-name="braceright" unicode="}" 
d="M120 -36c172 0 162 0 133 141c-37 181 -16 192 105 211v22c-121 19 -142 30 -105 211c29 141 39 141 -133 141v78c252 0 251 -11 203 -260c-18 -95 -19 -102 114 -127v-108c-133 -27 -132 -34 -114 -127c48 -249 49 -260 -203 -260v78z" />
    <glyph glyph-name="bracketleft" unicode="[" 
d="M237 -114v882h243v-73h-161v-736h161v-73h-243z" />
    <glyph glyph-name="bracketright" unicode="]" 
d="M363 -114h-243v73h161v736h-161v73h243v-882z" />
    <glyph glyph-name="quotesinglbase" unicode="&#x201a;" 
d="M198 37c2 6 3 15 3 20v78h120v-74c0 -4 -2 -17 -7 -27l-102 -210h-82z" />
    <glyph glyph-name="quotedblbase" unicode="&#x201e;" 
d="M135 37c1 6 2 15 2 20v78h108v-74c0 -4 -1 -17 -6 -27l-92 -210h-74zM256 -176l62 213c1 6 2 15 2 20v78h108v-74c0 -4 -1 -17 -6 -27l-92 -210h-74z" />
    <glyph glyph-name="quotedblleft" unicode="&#x201c;" 
d="M469 627l62 -213h-74l-92 210c-4 10 -6 23 -6 27v74h108v-78c0 -5 1 -14 2 -20zM176 651v74h108v-78c0 -5 1 -14 2 -20l62 -213h-74l-92 210c-4 10 -6 23 -6 27z" />
    <glyph glyph-name="quotedblright" unicode="&#x201d;" 
d="M118 627c1 6 2 15 2 20v78h108v-74c0 -4 -1 -17 -6 -27l-92 -210h-74zM239 414l62 213c1 6 2 15 2 20v78h108v-74c0 -4 -1 -17 -6 -27l-92 -210h-74z" />
    <glyph glyph-name="quoteleft" unicode="&#x2018;" 
d="M378 530c-2 -6 -3 -15 -3 -20v-78h-120v74c0 4 2 17 7 27l102 210h82z" />
    <glyph glyph-name="quoteright" unicode="&#x2019;" 
d="M168 628c2 6 3 15 3 20v78h120v-74c0 -4 -2 -17 -7 -27l-102 -210h-82z" />
    <glyph glyph-name="guillemotleft" unicode="&#xab;" 
d="M242 60l-124 198l124 196h87l-123 -196l124 -198h-88zM318 258l124 196h87l-123 -196l124 -198h-88z" />
    <glyph glyph-name="guillemotright" unicode="&#xbb;" 
d="M406 60h-88l124 198l-123 196h87l124 -196zM118 60l124 198l-123 196h87l124 -196l-124 -198h-88z" />
    <glyph glyph-name="guilsinglleft" unicode="&#x2039;" 
d="M337 60l-124 198l124 196h87l-123 -196l124 -198h-88z" />
    <glyph glyph-name="guilsinglright" unicode="&#x203a;" 
d="M262 60h-88l124 198l-123 196h87l124 -196z" />
    <glyph glyph-name="quotedbl" unicode="&#x22;" 
d="M158 405l-18 250v71h96v-71l-18 -250h-60zM340 655v71h96v-71l-18 -250h-60z" />
    <glyph glyph-name="quotesingle" unicode="'" 
d="M265 405l-20 250v71h107v-71l-20 -250h-67z" />
    <glyph glyph-name="florin" unicode="&#x192;" 
d="M51 -107l16 79h84c38 0 42 6 62 100l79 371h-115l-24 79h156l14 66c30 140 36 172 164 172h80l-16 -79h-71c-66 0 -61 -13 -77 -88l-15 -71h121l-17 -79h-120l-78 -373c-32 -152 -27 -177 -151 -177h-92z" />
    <glyph glyph-name="at" unicode="@" 
d="M217 -88c-138 0 -162 28 -162 163v436c0 148 25 179 164 179h204c100 0 121 -31 121 -180v-46l-1 -354h-39c-10 0 -10 0 -23 36h-7c-22 -38 -22 -38 -87 -38c-138 0 -158 0 -158 184c0 183 20 183 154 183c52 0 52 0 89 -40h8v75c0 87 -10 105 -57 105h-205
c-79 0 -91 -17 -91 -102v-436c0 -75 12 -91 88 -91h203v-74h-201zM297 291c0 -113 20 -113 99 -113c80 0 80 0 80 111c0 116 0 116 -80 116c-79 0 -99 0 -99 -114z" />
    <glyph glyph-name="ampersand" unicode="&#x26;" 
d="M271 -10c-171 0 -222 43 -222 188c0 63 32 102 134 195c-74 90 -97 135 -97 174c0 110 38 143 165 143c128 0 165 -33 165 -143c0 -35 -34 -83 -135 -182l159 -192c7 36 4 94 4 151h74c1 -93 -6 -162 -23 -212l93 -112h-91l-40 47c-39 -42 -99 -57 -186 -57zM125 174
c0 -88 33 -115 146 -115c64 0 111 6 138 44l-183 218c-79 -78 -101 -112 -101 -147zM163 547c0 -28 14 -54 73 -127c79 79 104 104 104 127c0 58 -20 76 -88 76s-89 -18 -89 -76z" />
    <glyph glyph-name="paragraph" unicode="&#xb6;" 
d="M298 350c-167 0 -182 11 -192 60c-6 28 -11 52 -11 122s5 94 10 120c11 51 24 62 193 62h250v-806h-76v733h-98v-733h-76v442z" />
    <glyph glyph-name="section" unicode="&#xa7;" 
d="M305 -58c-116 0 -164 39 -168 135h70c5 -44 33 -62 97 -62c74 0 103 24 103 63c0 45 -39 64 -136 92c-110 31 -154 77 -154 158c0 54 18 89 59 110c-37 26 -53 62 -53 115c0 96 52 137 172 137c116 0 164 -39 168 -135h-70c-5 44 -33 62 -97 62c-74 0 -103 -24 -103 -63
c0 -45 39 -64 136 -92c110 -31 154 -76 154 -161c0 -53 -17 -88 -57 -109c36 -26 51 -61 51 -113c0 -96 -52 -137 -172 -137zM188 335c0 -53 38 -79 134 -102l13 -3c53 6 77 27 77 68c0 51 -38 78 -134 101l-12 3c-56 -6 -78 -27 -78 -67z" />
    <glyph glyph-name="copyright" unicode="&#xa9;" 
d="M308 175c-111 0 -158 47 -158 163c0 115 47 165 150 165c87 0 135 -35 139 -101h-62c-6 33 -28 44 -72 44c-69 0 -92 -30 -92 -108c0 -80 24 -106 97 -106c41 0 65 8 70 40h63c-5 -70 -50 -97 -135 -97zM22 337c0 89 12 137 23 172c38 120 89 145 252 145
c170 0 220 -27 257 -144c11 -36 23 -83 23 -177c0 -60 -5 -110 -22 -164c-38 -123 -94 -145 -257 -145c-156 0 -218 20 -255 148c-18 63 -21 120 -21 165zM82 338c0 -76 9 -110 20 -149c25 -91 52 -103 196 -103c149 0 173 13 200 104c12 40 19 80 19 147
c0 82 -10 119 -20 152c-28 90 -49 103 -199 103c-145 0 -167 -12 -196 -104c-10 -32 -20 -68 -20 -150z" />
    <glyph glyph-name="registered" unicode="&#xae;" 
d="M310 321c-93 0 -131 12 -153 88c-9 32 -12 68 -12 97c0 53 7 81 14 102c22 71 52 86 149 86c101 0 130 -16 152 -86c6 -21 14 -47 14 -104c0 -36 -3 -65 -13 -97c-24 -74 -57 -86 -151 -86zM181 507c0 -45 5 -65 11 -88c15 -54 31 -61 116 -61c89 0 103 7 119 61
c7 24 11 48 11 87c0 49 -6 71 -12 90c-16 54 -29 61 -118 61c-85 0 -98 -7 -116 -61c-6 -19 -11 -41 -11 -89zM227 395v218h39c99 3 126 -10 127 -60c0 -38 -11 -49 -50 -52v-3c20 -3 34 -11 43 -38l19 -65h-36l-16 64c-6 22 -22 28 -59 28h-35v-92h-32zM259 516l61 1
c32 0 41 8 41 36c0 23 -10 29 -42 31c-23 1 -37 2 -60 0v-68z" />
    <glyph glyph-name="trademark" unicode="&#x2122;" 
d="M133 470v188h-77v30h186v-30h-77v-188h-32zM273 470v218h44l50 -108h4l51 108h43v-218h-30v109l1 63h-4l-48 -96h-29l-49 96h-3v-172h-30z" />
    <glyph glyph-name="degree" unicode="&#xb0;" 
d="M298 447c-97 0 -134 39 -134 134c0 100 37 137 134 137c98 0 137 -37 137 -137c0 -95 -39 -134 -137 -134zM228 581c0 -63 13 -77 70 -77s73 14 73 77c0 67 -16 83 -73 83s-70 -16 -70 -83z" />
    <glyph glyph-name="minute" unicode="&#x2032;" 
d="M265 405l-20 250v71h107v-71l-20 -250h-67z" />
    <glyph glyph-name="second" unicode="&#x2033;" 
d="M158 405l-18 250v71h96v-71l-18 -250h-60zM340 655v71h96v-71l-18 -250h-60z" />
    <glyph glyph-name="bar" unicode="|" 
d="M259 -98v872h82v-872h-82z" />
    <glyph glyph-name="brokenbar" unicode="&#xa6;" 
d="M259 -98v362h82v-362h-82zM259 438v336h82v-336h-82z" />
    <glyph glyph-name="dagger" unicode="&#x2020;" 
d="M260 -9v490h-164v74h164v230h82v-230h162v-74h-162v-490h-82z" />
    <glyph glyph-name="daggerdbl" unicode="&#x2021;" 
d="M97 221v74h162v186h-164v74h164v230h82v-230h162v-74h-162v-186h164v-74h-164v-230h-82v230h-162z" />
    <glyph glyph-name="estimated" unicode="&#x212e;" 
d="M315 14c-152 0 -213 69 -213 243c0 179 57 250 199 250c140 0 196 -76 197 -267h-304l2 -160c20 -24 53 -34 116 -34c80 0 117 18 128 64h41c-21 -69 -68 -96 -166 -96zM194 275h212v168c-26 23 -55 32 -99 32c-63 0 -96 -9 -113 -32v-168z" />
    <glyph glyph-name="cent" unicode="&#xa2;" 
d="M275 1v73c-140 10 -183 79 -183 269c0 193 43 262 183 273v65h65v-64c127 -4 168 -45 175 -166h-83c-12 63 -34 86 -92 90v-393c58 3 79 23 92 79h83c-8 -114 -49 -151 -175 -155v-71h-65zM176 341c0 -125 24 -176 99 -189v385c-75 -13 -99 -66 -99 -196z" />
    <glyph glyph-name="currency" unicode="&#xa4;" 
d="M300 101c-58 0 -99 8 -128 27l-54 -54l-42 42l60 60c-13 29 -18 69 -18 121c0 53 5 94 17 124l-59 59l42 43l55 -55c28 20 69 28 127 28s99 -8 127 -28l55 55l43 -43l-60 -60c12 -30 17 -70 17 -123c0 -52 -5 -91 -17 -121l60 -60l-43 -42l-54 54
c-29 -19 -70 -27 -128 -27zM195 297c0 -97 24 -126 105 -126c82 0 106 29 106 126c0 100 -24 130 -106 130c-81 0 -105 -30 -105 -130z" />
    <glyph glyph-name="dollar" unicode="$" 
d="M269 -93v105c-149 5 -194 48 -195 174h75c10 -70 38 -97 120 -103v242c-146 45 -190 87 -190 181c0 118 44 158 190 163v94h65v-95c131 -5 173 -43 180 -152h-79c-7 55 -31 77 -101 82v-216l6 -2c143 -46 186 -91 186 -198c0 -123 -45 -166 -192 -170v-105h-65zM153 502
c0 -39 28 -65 116 -98v195c-89 -4 -116 -28 -116 -97zM334 82c90 4 118 30 118 99c0 57 -29 90 -118 123v-222z" />
    <glyph glyph-name="Euro" unicode="&#x20ac;" 
d="M33 384l20 62h68c15 186 77 244 238 244c133 0 190 -40 202 -175h-85c-15 87 -45 102 -112 102c-103 0 -145 -40 -157 -171h210l-20 -62h-193c-1 -14 -1 -28 -1 -43c0 -20 0 -38 1 -55h193l-20 -62h-169c14 -123 56 -161 153 -161c78 0 108 24 121 97h85
c-12 -131 -73 -170 -207 -170c-159 0 -222 56 -239 234h-108l20 62h85c-1 17 -1 34 -1 53c0 16 0 31 1 45h-85z" />
    <glyph glyph-name="uni20BD" unicode="&#x20bd;" 
d="M131 0v129h-89l17 70h72v63h-92l20 76h72v342c310 23 374 -29 374 -209c0 -159 -50 -209 -218 -209h-70v-63h130l-17 -70h-113v-129h-86zM217 338h62c109 0 141 34 141 138c0 100 -36 133 -156 130l-47 -1v-267z" />
    <glyph glyph-name="uni20B9" unicode="&#x20b9;" 
d="M340 0l-217 284v78h86c91 3 127 24 137 86h-249l20 68h229c-8 71 -52 93 -170 93h-87l20 71h394l-20 -71h-106c33 -17 49 -47 53 -93h81l-20 -68h-60c-8 -120 -62 -157 -214 -157l227 -291h-104z" />
    <glyph glyph-name="sterling" unicode="&#xa3;" 
d="M66 91c83 52 106 86 101 217h-105l20 76h79l-3 36c-22 225 3 256 177 267c37 2 66 2 129 -4v-83c-48 9 -77 12 -129 7c-96 -9 -111 -33 -93 -194l3 -29h201l-20 -76h-174c8 -122 -12 -157 -84 -225v-6l85 3h241v-80h-428v91z" />
    <glyph glyph-name="yen" unicode="&#xa5;" 
d="M116 254l20 62h110l-158 366h84l128 -314h5l129 314h83l-159 -366h142l-20 -62h-139v-63h144l-20 -62h-124v-129h-78v129h-162l20 62h142v63h-147z" />
    <glyph glyph-name="equivalence" unicode="&#x2261;" 
d="M67 234v77h466v-77h-466zM67 74v77h466v-77h-466zM67 394v77h466v-77h-466z" />
    <glyph glyph-name="plus" unicode="+" 
d="M260 48v216h-202v76h202v210h80v-210h202v-76h-202v-216h-80z" />
    <glyph glyph-name="minus" unicode="&#x2212;" 
d="M88 257v82h424v-82h-424z" />
    <glyph glyph-name="multiply" unicode="&#xd7;" 
d="M154 100l-54 54l146 146l-143 143l55 54l142 -143l144 144l55 -54l-144 -144l145 -145l-55 -55l-145 145z" />
    <glyph glyph-name="divide" unicode="&#xf7;" 
d="M67 257v82h466v-82h-466zM247 52v105h104v-105h-104zM247 432v105h104v-105h-104z" />
    <glyph glyph-name="equal" unicode="=" 
d="M67 364v77h466v-77h-466zM67 164v77h466v-77h-466z" />
    <glyph glyph-name="notequal" unicode="&#x2260;" 
d="M168 23l48 141h-149v77h176l42 123h-218v77h245l45 132h83l-46 -132h139v-77h-165l-43 -123h208v-77h-234l-49 -141h-82z" />
    <glyph glyph-name="greater" unicode="&#x3e;" 
d="M97 29v94l371 170v8l-371 170v94l450 -219v-98z" />
    <glyph glyph-name="less" unicode="&#x3c;" 
d="M482 29l-450 219v98l450 219v-94l-371 -170v-8l371 -170v-94z" />
    <glyph glyph-name="greaterequal" unicode="&#x2265;" 
d="M75 142v86l271 103l100 33v7l-100 33l-271 103v86l450 -175v-101zM75 36v75h450v-75h-450z" />
    <glyph glyph-name="lessequal" unicode="&#x2264;" 
d="M525 142l-450 175v101l450 175v-86l-271 -103l-100 -33v-7l100 -33l271 -103v-86zM75 36v75h450v-75h-450z" />
    <glyph glyph-name="plusminus" unicode="&#xb1;" 
d="M75 46v65h450v-65h-450zM75 340v64h187v178h75v-178h187v-64h-187v-183h-75v183h-187z" />
    <glyph glyph-name="approxequal" unicode="&#x2248;" 
d="M416 273c-59 0 -74 7 -138 64c-59 53 -73 58 -100 58c-41 0 -46 -6 -46 -88h-67c0 139 5 145 118 145c61 0 77 -8 140 -64c59 -52 75 -58 98 -58c43 0 48 17 48 101h66c0 -140 -5 -158 -119 -158zM65 107c0 139 5 145 118 145c61 0 77 -8 140 -64c59 -52 75 -58 98 -58
c43 0 48 17 48 101h66c0 -140 -5 -158 -119 -158c-59 0 -74 7 -138 64c-59 53 -73 58 -100 58c-41 0 -46 -6 -46 -88h-67z" />
    <glyph glyph-name="asciitilde" unicode="~" 
d="M416 195c-59 0 -74 8 -137 72c-59 60 -75 68 -101 68c-41 0 -46 -11 -46 -100h-77c0 150 15 167 128 167c61 0 77 -8 140 -72c59 -60 75 -68 98 -68c43 0 48 12 48 104h76c0 -153 -15 -171 -129 -171z" />
    <glyph glyph-name="logicalnot" unicode="&#xac;" 
d="M457 113v197h-405v73h483v-270h-78z" />
    <glyph glyph-name="asciicircum" unicode="^" 
d="M108 423l138 257h107l138 -257h-90l-97 178h-9l-97 -178h-90z" />
    <glyph glyph-name="infinity" unicode="&#x221e;" 
d="M161 163c-110 0 -142 32 -142 136s32 135 142 135c62 0 94 -17 137 -76h4c43 59 75 76 136 76c110 0 143 -31 143 -135s-33 -136 -143 -136c-62 0 -93 18 -136 78h-4c-43 -60 -74 -78 -137 -78zM87 299c0 -61 12 -75 69 -75c56 0 78 16 109 77c-28 57 -50 72 -107 72
c-59 0 -71 -13 -71 -74zM336 301c29 -61 51 -77 108 -77s70 14 70 75s-13 74 -73 74c-56 0 -79 -15 -105 -72z" />
    <glyph glyph-name="integral" unicode="&#x222b;" 
d="M109 -107v76h64c52 0 56 11 66 103l58 516c17 152 21 172 160 172h40v-76h-47c-67 0 -68 -12 -77 -91l-57 -523c-17 -158 -21 -177 -151 -177h-56z" />
    <glyph glyph-name="product" unicode="&#x220f;" 
d="M128 0v609h-69v73h481v-73h-79v-609h-77v609h-179v-609h-77z" />
    <glyph glyph-name="summation" unicode="&#x2211;" 
d="M98 0v74l203 233l31 31v6l-31 30l-203 232v74h431v-74h-266l-70 3v-6l25 -25l205 -233v-8l-182 -209l-48 -51v-6l70 3h266v-74h-431z" />
    <glyph glyph-name="radical" unicode="&#x221a;" 
d="M181 -1l-98 316h-73v67h132l86 -299h7l183 597h172v-68h-112l-196 -613h-101z" />
    <glyph glyph-name="partialdiff" unicode="&#x2202;" 
d="M274 714c200 -226 241 -310 241 -488c0 -195 -38 -235 -222 -235c-182 0 -220 39 -220 231c0 186 35 225 207 225c71 0 93 -9 124 -49l5 4c-88 139 -130 192 -246 312h111zM155 223c0 -132 24 -159 138 -159c118 0 142 28 140 162c-2 122 -26 147 -142 147
c-113 0 -136 -26 -136 -150z" />
    <glyph glyph-name="uni00B5" unicode="&#xb5;" 
d="M92 -215v737h84v-336c0 -93 24 -121 103 -121c113 0 147 43 147 187v270h83v-522h-83v78h-7c-30 -67 -68 -88 -165 -88c-31 0 -57 3 -78 9v-214h-84z" />
    <glyph glyph-name="percent" unicode="%" 
d="M42 0l426 680h83l-427 -680h-82zM34 547c0 102 37 142 129 142s131 -40 131 -142c0 -96 -39 -138 -131 -138s-129 41 -129 138zM106 547c0 -61 8 -72 57 -72c48 0 59 11 59 72c0 66 -11 79 -59 79c-49 0 -57 -14 -57 -79zM305 129c0 102 37 142 129 142s131 -40 131 -142
c0 -97 -39 -138 -131 -138s-129 41 -129 138zM377 129c0 -61 8 -72 57 -72c48 0 59 11 59 72c0 66 -11 79 -59 79c-49 0 -57 -14 -57 -79z" />
    <glyph glyph-name="perthousand" unicode="&#x2030;" 
d="M31 200l458 480h81l-459 -480h-80zM33 567c0 90 33 123 120 123c88 0 124 -33 124 -123c0 -86 -36 -121 -124 -121c-87 0 -120 35 -120 121zM90 567c0 -57 12 -69 63 -69c52 0 66 12 66 69c0 60 -14 75 -66 75c-51 0 -63 -15 -63 -75zM138 111c0 90 33 123 120 123
c48 0 80 -10 100 -33c19 23 50 33 97 33c88 0 124 -33 124 -123c0 -86 -36 -121 -124 -121c-47 0 -78 10 -97 33c-20 -23 -52 -33 -100 -33c-87 0 -120 35 -120 121zM195 111c0 -57 12 -69 63 -69c52 0 66 12 66 69c0 60 -14 75 -66 75c-51 0 -63 -15 -63 -75zM392 111
c0 -57 12 -69 63 -69c52 0 66 12 66 69c0 60 -14 75 -66 75c-51 0 -63 -15 -63 -75z" />
    <glyph glyph-name="arrowup" unicode="&#x2191;" 
d="M265 26v332l6 87l-192 -199v106l220 219h8l220 -219v-106l-192 198l6 -86v-332h-76z" />
    <glyph glyph-name="uni2197" unicode="&#x2197;" 
d="M83 133l234 235l66 57l-276 -5l75 75h310l6 -6v-311l-75 -74l5 275l-57 -65l-235 -235z" />
    <glyph glyph-name="arrowright" unicode="&#x2192;" 
d="M31 337h332l87 -6l-199 192h106l219 -220v-8l-219 -220h-106l198 192l-86 -6h-332v76z" />
    <glyph glyph-name="uni2198" unicode="&#x2198;" 
d="M138 517l235 -234l57 -66l-5 276l75 -75v-310l-6 -6h-311l-74 75l275 -5l-65 57l-235 235z" />
    <glyph glyph-name="arrowdown" unicode="&#x2193;" 
d="M268 571h76v-332l-6 -86l192 198v-106l-220 -219h-8l-220 219v106l192 -199l-6 87v332z" />
    <glyph glyph-name="uni2199" unicode="&#x2199;" 
d="M459 518l54 -54l-235 -235l-65 -57l276 5l-75 -75h-311l-5 6l-1 311l75 74l-5 -276l57 66z" />
    <glyph glyph-name="arrowleft" unicode="&#x2190;" 
d="M566 337v-76h-332l-86 6l198 -192h-106l-219 220v8l219 220h106l-199 -192l87 6h332z" />
    <glyph glyph-name="uni2196" unicode="&#x2196;" 
d="M515 134l-54 -54l-235 235l-57 65l5 -276l-75 75v311l6 5l311 1l74 -75l-276 5l66 -57z" />
    <glyph glyph-name="arrowboth" unicode="&#x2194;" 
d="M175 114l-160 180v8l160 180h85l-136 -145v-5l56 1h240l56 -1v5l-136 145h85l160 -180v-8l-160 -180h-85l136 145v5l-56 -1h-240l-56 1v-5l136 -145h-85z" />
    <glyph glyph-name="arrowupdn" unicode="&#x2195;" 
d="M116 420l180 160h8l180 -160v-85l-145 136h-5l1 -56v-240l-1 -56h5l145 136v-85l-180 -160h-8l-180 160v85l145 -136h5l-1 56v240l1 56h-5l-145 -136v85z" />
    <glyph glyph-name="uni2581" unicode="&#x2581;" 
d="M0 -244v150h600l-1 -150h-599z" />
    <glyph glyph-name="uni2582" unicode="&#x2582;" 
d="M0 -244v300h600l-1 -300h-599z" />
    <glyph glyph-name="uni2583" unicode="&#x2583;" 
d="M0 -244v450h600l-1 -450h-599z" />
    <glyph glyph-name="dnblock" unicode="&#x2584;" 
d="M0 -244v600h600l-1 -600h-599z" />
    <glyph glyph-name="uni2585" unicode="&#x2585;" 
d="M0 -244v750h600l-1 -750h-599z" />
    <glyph glyph-name="uni2586" unicode="&#x2586;" 
d="M0 -244v900h600l-1 -900h-599z" />
    <glyph glyph-name="uni2587" unicode="&#x2587;" 
d="M0 -244v1050h600l-1 -1050h-599z" />
    <glyph glyph-name="block" unicode="&#x2588;" 
d="M0 -244v1200h600l-1 -1200h-599z" />
    <glyph glyph-name="upblock" unicode="&#x2580;" 
d="M0 356v600h600l-1 -600h-599z" />
    <glyph glyph-name="uni2594" unicode="&#x2594;" 
d="M0 806v150h600l-1 -150h-599z" />
    <glyph glyph-name="uni258F" unicode="&#x258f;" 
d="M0 -244v1200h75l-1 -1200h-74z" />
    <glyph glyph-name="uni258E" unicode="&#x258e;" 
d="M0 -244v1200h150v-1200h-150z" />
    <glyph glyph-name="uni258D" unicode="&#x258d;" 
d="M0 -244v1200h225l-1 -1200h-224z" />
    <glyph glyph-name="lfblock" unicode="&#x258c;" 
d="M0 -244v1200h300v-1200h-300z" />
    <glyph glyph-name="uni258B" unicode="&#x258b;" 
d="M0 -244v1200h375l-1 -1200h-374z" />
    <glyph glyph-name="uni258A" unicode="&#x258a;" 
d="M0 -244v1200h450l-1 -1200h-449z" />
    <glyph glyph-name="uni2589" unicode="&#x2589;" 
d="M0 -244v1200h525l-1 -1200h-524z" />
    <glyph glyph-name="rtblock" unicode="&#x2590;" 
d="M300 -244v1200h300v-1200h-300z" />
    <glyph glyph-name="uni2595" unicode="&#x2595;" 
d="M525 -244v1200h75v-1200h-75z" />
    <glyph glyph-name="uni2596" unicode="&#x2596;" 
d="M0 -244v600h300v-600h-300z" />
    <glyph glyph-name="uni2597" unicode="&#x2597;" 
d="M300 -244v600h300v-600h-300z" />
    <glyph glyph-name="uni2598" unicode="&#x2598;" 
d="M0 356v600h300v-600h-300z" />
    <glyph glyph-name="uni2599" unicode="&#x2599;" 
d="M0 -244v1200h300v-600h300v-600h-600z" />
    <glyph glyph-name="uni259A" unicode="&#x259a;" 
d="M0 356v600h300v-600h-300zM300 -244v600h300v-600h-300z" />
    <glyph glyph-name="uni259B" unicode="&#x259b;" 
d="M0 -244v1200h600v-600h-300v-600h-300z" />
    <glyph glyph-name="uni259C" unicode="&#x259c;" 
d="M300 -244v600h-300v600h600v-1200h-300z" />
    <glyph glyph-name="uni259D" unicode="&#x259d;" 
d="M300 356v600h300v-600h-300z" />
    <glyph glyph-name="uni259E" unicode="&#x259e;" 
d="M300 356v-600h-300v600h300zM300 356v600h300v-600h-300z" />
    <glyph glyph-name="uni259F" unicode="&#x259f;" 
d="M0 -244v600h300v600h300v-1200h-600z" />
    <glyph glyph-name="ltshade" unicode="&#x2591;" 
d="M500 806v50h50v-50h-50zM0 -94v50h50v-50h-50zM0 106v50h50v-50h-50zM0 306v50h50v-50h-50zM0 506v50h50v-50h-50zM0 706v50h50v-50h-50zM0 906v50h50v-50h-50zM100 -194v50h50v-50h-50zM100 6v50h50v-50h-50zM100 206v50h50v-50h-50zM100 406v50h50v-50h-50zM100 606v50
h50v-50h-50zM100 806v50h50v-50h-50zM200 -94v50h50v-50h-50zM200 106v50h50v-50h-50zM200 306v50h50v-50h-50zM200 506v50h50v-50h-50zM200 706v50h50v-50h-50zM200 906v50h50v-50h-50zM300 -194v50h50v-50h-50zM300 6v50h50v-50h-50zM300 206v50h50v-50h-50zM300 406v50
h50v-50h-50zM300 606v50h50v-50h-50zM300 806v50h50v-50h-50zM400 -94v50h50v-50h-50zM400 106v50h50v-50h-50zM400 306v50h50v-50h-50zM400 506v50h50v-50h-50zM400 706v50h50v-50h-50zM400 906v50h50v-50h-50zM500 -194v50h50v-50h-50zM500 6v50h50v-50h-50zM500 206v50
h50v-50h-50zM500 406v50h50v-50h-50zM500 606v50h50v-50h-50z" />
    <glyph glyph-name="shade" unicode="&#x2592;" 
d="M500 906v50h50v-50h-50zM0 -94v50h50v-50h-50zM0 106v50h50v-50h-50zM0 306v50h50v-50h-50zM0 506v50h50v-50h-50zM0 706v50h50v-50h-50zM0 906v50h50v-50h-50zM50 -194v50h50v-50h-50zM50 6v50h50v-50h-50zM50 206v50h50v-50h-50zM50 406v50h50v-50h-50zM50 606v50h50
v-50h-50zM50 806v50h50v-50h-50zM100 -94v50h50v-50h-50zM100 106v50h50v-50h-50zM100 306v50h50v-50h-50zM100 506v50h50v-50h-50zM100 706v50h50v-50h-50zM100 906v50h50v-50h-50zM150 -194v50h50v-50h-50zM150 6v50h50v-50h-50zM150 206v50h50v-50h-50zM150 406v50h50
v-50h-50zM150 606v50h50v-50h-50zM150 806v50h50v-50h-50zM200 -94v50h50v-50h-50zM200 106v50h50v-50h-50zM200 306v50h50v-50h-50zM200 506v50h50v-50h-50zM200 706v50h50v-50h-50zM200 906v50h50v-50h-50zM250 -194v50h50v-50h-50zM250 6v50h50v-50h-50zM250 206v50h50
v-50h-50zM250 406v50h50v-50h-50zM250 606v50h50v-50h-50zM250 806v50h50v-50h-50zM300 -94v50h50v-50h-50zM300 106v50h50v-50h-50zM300 306v50h50v-50h-50zM300 506v50h50v-50h-50zM300 706v50h50v-50h-50zM300 906v50h50v-50h-50zM350 -194v50h50v-50h-50zM350 6v50h50
v-50h-50zM350 206v50h50v-50h-50zM350 406v50h50v-50h-50zM350 606v50h50v-50h-50zM350 806v50h50v-50h-50zM400 -94v50h50v-50h-50zM400 106v50h50v-50h-50zM400 306v50h50v-50h-50zM400 506v50h50v-50h-50zM400 706v50h50v-50h-50zM400 906v50h50v-50h-50zM450 -194v50h50
v-50h-50zM450 6v50h50v-50h-50zM450 206v50h50v-50h-50zM450 406v50h50v-50h-50zM450 606v50h50v-50h-50zM450 806v50h50v-50h-50zM500 -94v50h50v-50h-50zM500 106v50h50v-50h-50zM500 306v50h50v-50h-50zM500 506v50h50v-50h-50zM500 706v50h50v-50h-50zM550 -194v50h50
v-50h-50zM550 6v50h50v-50h-50zM550 206v50h50v-50h-50zM550 406v50h50v-50h-50zM550 606v50h50v-50h-50zM550 806v50h50v-50h-50z" />
    <glyph glyph-name="dkshade" unicode="&#x2593;" 
d="M50 -244v50h-50v150h50v50h-50v150h50v50h-50v150h50v50h-50v150h50v50h-50v150h50v50h-50v150h600v-50h-50v-50h50v-150h-50v-50h50v-150h-50v-50h50v-150h-50v-50h50v-150h-50v-50h50v-150h-50v-50h50v-100h-50v50h-50v-50h-50v50h-50v-50h-50v50h-50v-50h-50v50h-50
v-50h-50v50h-50v-50h-50zM50 -144h50v50h-50v-50zM50 56h50v50h-50v-50zM50 256h50v50h-50v-50zM50 456h50v50h-50v-50zM50 656h50v50h-50v-50zM50 856h50v50h-50v-50zM100 -44h50v50h-50v-50zM100 156h50v50h-50v-50zM100 356h50v50h-50v-50zM100 556h50v50h-50v-50z
M100 756h50v50h-50v-50zM150 -144h50v50h-50v-50zM150 56h50v50h-50v-50zM150 256h50v50h-50v-50zM150 456h50v50h-50v-50zM150 656h50v50h-50v-50zM150 856h50v50h-50v-50zM200 -44h50v50h-50v-50zM200 156h50v50h-50v-50zM200 356h50v50h-50v-50zM200 556h50v50h-50v-50z
M200 756h50v50h-50v-50zM250 -144h50v50h-50v-50zM250 56h50v50h-50v-50zM250 256h50v50h-50v-50zM250 456h50v50h-50v-50zM250 656h50v50h-50v-50zM250 856h50v50h-50v-50zM300 -44h50v50h-50v-50zM300 156h50v50h-50v-50zM300 356h50v50h-50v-50zM300 556h50v50h-50v-50z
M300 756h50v50h-50v-50zM350 -144h50v50h-50v-50zM350 56h50v50h-50v-50zM350 256h50v50h-50v-50zM350 456h50v50h-50v-50zM350 656h50v50h-50v-50zM350 856h50v50h-50v-50zM400 -44h50v50h-50v-50zM400 156h50v50h-50v-50zM400 356h50v50h-50v-50zM400 556h50v50h-50v-50z
M400 756h50v50h-50v-50zM450 -144h50v50h-50v-50zM450 56h50v50h-50v-50zM450 256h50v50h-50v-50zM450 456h50v50h-50v-50zM450 656h50v50h-50v-50zM450 856h50v50h-50v-50zM500 -44h50v50h-50v-50zM500 156h50v50h-50v-50zM500 356h50v50h-50v-50zM500 556h50v50h-50v-50z
M500 756h50v50h-50v-50z" />
    <glyph glyph-name="uni25CC" unicode="&#x25cc;" 
d="M503 343c-23 0 -35 13 -35 36s12 36 35 36s35 -13 35 -36s-12 -36 -35 -36zM29 262c0 23 12 36 35 36s35 -13 35 -36s-12 -36 -35 -36s-35 13 -35 36zM60 144c0 23 12 36 35 36s35 -13 35 -36s-12 -36 -35 -36s-35 13 -35 36zM60 379c0 23 12 36 35 36s35 -13 35 -36
s-12 -36 -35 -36s-35 13 -35 36zM148 56c0 23 12 36 35 36s35 -13 35 -36s-12 -36 -35 -36s-35 13 -35 36zM148 467c0 23 12 36 35 36s35 -13 35 -36s-12 -36 -35 -36s-35 13 -35 36zM264 26c0 23 12 36 35 36s35 -13 35 -36s-12 -36 -35 -36s-35 13 -35 36zM264 496
c0 23 12 36 35 36s35 -13 35 -36s-12 -36 -35 -36s-35 13 -35 36zM380 56c0 23 12 36 35 36s35 -13 35 -36s-12 -36 -35 -36s-35 13 -35 36zM380 467c0 23 12 36 35 36s35 -13 35 -36s-12 -36 -35 -36s-35 13 -35 36zM468 144c0 23 12 36 35 36s35 -13 35 -36
s-12 -36 -35 -36s-35 13 -35 36zM499 262c0 23 12 36 35 36s35 -13 35 -36s-12 -36 -35 -36s-35 13 -35 36z" />
    <glyph glyph-name="lozenge" unicode="&#x25ca;" 
d="M265 0l-183 327v6l183 327h69l183 -327v-6l-183 -327h-69zM163 330l134 -250h6l133 250l-134 252h-6z" />
    <glyph glyph-name="filledbox" unicode="&#x25a0;" 
d="M0 38v600h600v-600h-600z" />
    <glyph glyph-name="triagup" unicode="&#x25b2;" 
d="M65 100c-15 0 -23 14 -15 29l231 483c10 20 29 20 38 0l231 -483c7 -15 0 -29 -15 -29h-470z" />
    <glyph glyph-name="uni25B6" unicode="&#x25b6;" 
d="M66 103c-17 -8 -29 2 -29 15v470c0 15 14 23 29 15l483 -231c20 -10 20 -29 0 -38z" />
    <glyph glyph-name="triagdn" unicode="&#x25bc;" 
d="M50 598c-8 15 0 29 15 29h470c13 0 23 -12 15 -29l-231 -483c-9 -20 -28 -20 -38 0z" />
    <glyph glyph-name="uni25C0" unicode="&#x25c0;" 
d="M52 334c-20 9 -20 28 0 38l483 231c15 8 29 0 29 -15v-470c0 -13 -12 -23 -29 -15z" />
    <glyph glyph-name="uni25B3" unicode="&#x25b3;" 
d="M65 100c-15 0 -22 14 -15 29l231 483c10 20 29 20 38 0l231 -483c7 -15 0 -29 -15 -29h-470zM146 183c-5 -11 0 -19 12 -19h284c12 0 17 8 12 19l-143 298c-6 12 -16 12 -22 0z" />
    <glyph glyph-name="uni25B7" unicode="&#x25b7;" 
d="M66 103c-17 -8 -29 2 -29 15v470c0 15 14 22 29 15l483 -231c20 -10 20 -29 0 -38zM101 211c0 -12 8 -17 19 -12l298 143c12 6 12 16 0 22l-298 143c-11 5 -19 0 -19 -12v-284z" />
    <glyph glyph-name="uni25BD" unicode="&#x25bd;" 
d="M50 598c-8 17 2 29 15 29h470c15 0 22 -14 15 -29l-231 -483c-10 -20 -29 -20 -38 0zM146 544l143 -298c6 -12 16 -12 22 0l143 298c5 11 0 19 -12 19h-284c-13 0 -17 -9 -12 -19z" />
    <glyph glyph-name="uni25C1" unicode="&#x25c1;" 
d="M52 334c-20 9 -20 28 0 38l483 231c15 7 29 0 29 -15v-470c0 -13 -12 -23 -29 -15zM183 342l298 -143c11 -5 19 0 19 12v284c0 12 -8 17 -19 12l-298 -143c-12 -6 -12 -16 0 -22z" />
    <glyph glyph-name="uni2566" unicode="&#x2566;" 
d="M0 393v75h600v-75h-600zM0 243v75h263v-562h-76v487h-187zM338 -244v562h262v-75h-186v-487h-76z" />
    <glyph glyph-name="uni2557" unicode="&#x2557;" 
d="M338 -244v637h-338v75h413v-712h-75zM0 243v75h263v-562h-75v487h-188z" />
    <glyph glyph-name="uni2554" unicode="&#x2554;" 
d="M188 -244v712h412v-75h-337v-637h-75zM338 -244v562h262v-75h-187v-487h-75z" />
    <glyph glyph-name="uni2550" unicode="&#x2550;" 
d="M0 393v75h600v-75h-600zM0 243v75h600v-75h-600z" />
    <glyph glyph-name="uni2569" unicode="&#x2569;" 
d="M0 243v75h338v638h75v-713h-413zM0 393v75h188v488h75v-563h-263z" />
    <glyph glyph-name="uni255D" unicode="&#x255d;" 
d="M0 243v75h338v638h75v-713h-413zM0 393v75h188v488h75v-563h-263z" />
    <glyph glyph-name="uni255A" unicode="&#x255a;" 
d="M188 243v713h75v-638h337v-75h-412zM338 393v563h75v-488h187v-75h-262z" />
    <glyph glyph-name="uni2551" unicode="&#x2551;" 
d="M338 -244v1200h75v-1200h-75zM188 -244v1200h75v-1200h-75z" />
    <glyph glyph-name="uni256C" unicode="&#x256c;" 
d="M338 393v563h75v-488h187v-75h-262zM0 243v75h263v-562h-75v487h-188zM0 393v75h188v488h75v-563h-263zM338 -244v562h262v-75h-187v-487h-75z" />
    <glyph glyph-name="uni2563" unicode="&#x2563;" 
d="M338 -244v1200h75v-1200h-75zM0 243v75h263v-562h-75v487h-188zM0 393v75h188v488h75v-563h-263z" />
    <glyph glyph-name="uni2560" unicode="&#x2560;" 
d="M188 -244v1200h75v-1200h-75zM338 243v75h262v-75h-187l1 -487h-75zM338 393v75l1 488h75l-1 -488h187v-75h-262z" />
    <glyph glyph-name="uni252C" unicode="&#x252c;" 
d="M263 -244v562h-263v75h600v-75h-262v-562h-75z" />
    <glyph glyph-name="uni2510" unicode="&#x2510;" 
d="M263 -244v562h-263v75h338v-637h-75z" />
    <glyph glyph-name="uni250C" unicode="&#x250c;" 
d="M263 -244v638h337v-75h-262v-563h-75z" />
    <glyph glyph-name="uni2500" unicode="&#x2500;" 
d="M0 318v75h600v-75h-600z" />
    <glyph glyph-name="uni2534" unicode="&#x2534;" 
d="M0 318v75h263v563h75v-563h262v-75h-600z" />
    <glyph glyph-name="uni2518" unicode="&#x2518;" 
d="M0 318v75h263v563h75v-638h-338z" />
    <glyph glyph-name="uni2514" unicode="&#x2514;" 
d="M263 318v638h75v-563h262v-75h-337z" />
    <glyph glyph-name="uni2502" unicode="&#x2502;" 
d="M263 -244v1200h75v-1200h-75z" />
    <glyph glyph-name="uni253C" unicode="&#x253c;" 
d="M262 -244v562h-262v75h262v563h75v-563h263v-75h-263v-562h-75z" />
    <glyph glyph-name="uni2524" unicode="&#x2524;" 
d="M263 -244v562h-263v75h263v563h75v-1200h-75z" />
    <glyph glyph-name="uni251C" unicode="&#x251c;" 
d="M263 -244v562h-1v75h1v563h75v-563h262v-75h-262v-562h-75z" />
    <glyph glyph-name="tonos" unicode="&#x384;" 
d="M272 603h-100l138 177h117z" />
    <glyph glyph-name="uni0308" unicode="&#x308;" 
d="M348 630v108h106v-108h-106zM146 630v108h106v-108h-106z" />
    <glyph glyph-name="uni0307" unicode="&#x307;" 
d="M247 630v108h106v-108h-106z" />
    <glyph glyph-name="gravecomb" unicode="&#x300;" 
d="M325 603l-155 177h117l138 -177h-100z" />
    <glyph glyph-name="acutecomb" unicode="&#x301;" 
d="M274 603h-100l138 177h117z" />
    <glyph glyph-name="uni030B" unicode="&#x30b;" 
d="M164 603h-100l138 177h117zM284 604l138 177h117l-155 -177h-100z" />
    <glyph glyph-name="uni030C.alt" 
d="M240 598l31 187h88l-50 -187h-69z" />
    <glyph glyph-name="uni0302" unicode="&#x302;" 
d="M113 599l148 181h77l148 -181h-88l-90 110h-17l-90 -110h-88z" />
    <glyph glyph-name="uni030C" unicode="&#x30c;" 
d="M113 780h88l90 -110h17l90 110h88l-148 -181h-77z" />
    <glyph glyph-name="uni0306" unicode="&#x306;" 
d="M300 619c-105 0 -154 41 -171 142h73c15 -56 43 -78 98 -78s83 22 98 78h73c-18 -101 -67 -142 -171 -142z" />
    <glyph glyph-name="uni030A" unicode="&#x30a;" 
d="M299 592c-70 0 -98 28 -98 98c0 71 28 100 98 100c72 0 101 -29 101 -100c0 -70 -29 -98 -101 -98zM256 690c0 -36 11 -49 43 -49c34 0 46 13 46 49c0 39 -12 53 -46 53c-32 0 -43 -14 -43 -53z" />
    <glyph glyph-name="tildecomb" unicode="&#x303;" 
d="M387 595c-42 0 -56 5 -105 55c-42 42 -54 50 -74 50c-29 0 -31 -6 -31 -75h-66c0 119 11 134 100 134c43 0 60 -6 109 -56c43 -43 52 -50 71 -50c30 0 32 7 32 79h65c0 -121 -11 -137 -101 -137z" />
    <glyph glyph-name="uni0304" unicode="&#x304;" 
d="M148 661v66h303v-66h-303z" />
    <glyph glyph-name="uni0312" unicode="&#x312;" 
d="M224 607l80 187h71l-61 -187h-90z" />
    <glyph glyph-name="uni0326" unicode="&#x326;" 
d="M224 -260l61 187h90l-80 -187h-71z" />
    <glyph glyph-name="uni0327" unicode="&#x327;" 
d="M301 -233c-25 0 -39 2 -62 8v49c15 -4 28 -6 56 -6c44 0 58 9 58 37c0 27 -17 34 -72 34h-36v43l39 68h70l-56 -64c97 -1 118 -18 118 -79c0 -70 -26 -90 -115 -90z" />
    <glyph glyph-name="uni0328" unicode="&#x328;" 
d="M318 -174c-84 0 -105 22 -93 95c5 33 23 51 81 79h84l-38 -17c-45 -20 -59 -34 -63 -59c-6 -36 5 -47 48 -47c16 0 25 1 39 6v-49c-28 -6 -41 -8 -58 -8z" />
    <glyph glyph-name="dieresis" unicode="&#xa8;" 
d="M348 630v108h106v-108h-106zM146 630v108h106v-108h-106z" />
    <glyph glyph-name="dotaccent" unicode="&#x2d9;" 
d="M245 630v108h106v-108h-106z" />
    <glyph glyph-name="grave" unicode="`" 
d="M322 603l-155 177h117l138 -177h-100z" />
    <glyph glyph-name="acute" unicode="&#xb4;" 
d="M272 603h-100l138 177h117z" />
    <glyph glyph-name="hungarumlaut" unicode="&#x2dd;" 
d="M164 603h-100l138 177h117zM284 604l138 177h117l-155 -177h-100z" />
    <glyph glyph-name="circumflex" unicode="&#x2c6;" 
d="M113 599l148 181h77l148 -181h-88l-90 110h-17l-90 -110h-88z" />
    <glyph glyph-name="caron" unicode="&#x2c7;" 
d="M113 780h88l90 -110h17l90 110h88l-148 -181h-77z" />
    <glyph glyph-name="breve" unicode="&#x2d8;" 
d="M300 619c-105 0 -154 41 -171 142h73c15 -56 43 -78 98 -78s83 22 98 78h73c-18 -101 -67 -142 -171 -142z" />
    <glyph glyph-name="ring" unicode="&#x2da;" 
d="M299 592c-70 0 -98 28 -98 98c0 71 28 100 98 100c72 0 101 -29 101 -100c0 -70 -29 -98 -101 -98zM256 690c0 -36 11 -49 43 -49c34 0 46 13 46 49c0 39 -12 53 -46 53c-32 0 -43 -14 -43 -53z" />
    <glyph glyph-name="tilde" unicode="&#x2dc;" 
d="M388 595c-42 0 -56 5 -105 55c-42 42 -54 50 -74 50c-29 0 -31 -6 -31 -75h-66c0 119 11 134 100 134c43 0 60 -6 109 -56c43 -43 52 -50 71 -50c30 0 32 7 32 79h65c0 -121 -11 -137 -101 -137z" />
    <glyph glyph-name="macron" unicode="&#xaf;" 
d="M148 661v66h303v-66h-303z" />
    <glyph glyph-name="cedilla" unicode="&#xb8;" 
d="M299 -233c-25 0 -39 2 -62 8v49c15 -4 28 -6 56 -6c44 0 58 9 58 37c0 27 -17 34 -72 34h-36v43l39 68h70l-56 -64c97 -1 118 -18 118 -79c0 -70 -26 -90 -115 -90z" />
    <glyph glyph-name="ogonek" unicode="&#x2db;" 
d="M318 -174c-84 0 -105 22 -93 95c5 33 23 51 81 79h84l-38 -17c-45 -20 -59 -34 -63 -59c-6 -36 5 -47 48 -47c16 0 25 1 39 6v-49c-28 -6 -41 -8 -58 -8z" />
  </font>
</defs>
</svg>
